<svg xmlns="http://www.w3.org/2000/svg" width="558.219" height="541.891" viewBox="0 0 558.219 541.891">
    <defs>
        <style>
            .cls-1{fill:#dbf1f4}
        </style>
    </defs>
    <g id="blob-shape_6_" data-name="blob-shape (6)" transform="rotate(-39 498.98 -296.098)">
        <path id="Path_71" d="M108.6-160.2c26.1 8 37 48.4 53.5 85.8 16.4 37.4 38.5 71.9 30.7 99.7C185 53 147.3 74 120.7 104.6c-26.5 30.7-41.9 71-64.4 69.5-22.5-1.4-52.1-44.6-95-52.5s-99.2 19.4-140.7 11.6c-41.5-7.9-68.1-50.8-72-95.4s15.1-90.8 50.9-112.7c35.9-21.9 88.7-19.3 125-22.6 36.2-3.3 55.9-12.4 86.3-29.2 30.5-16.8 71.7-41.4 97.8-33.5z" class="cls-1" data-name="Path 71"/>
    </g>
</svg>
