<svg xmlns="http://www.w3.org/2000/svg" width="352.396" height="356.867" viewBox="0 0 352.396 356.867">
    <defs>
        <style>
            .cls-1{fill:#dbf1f4}
        </style>
    </defs>
    <g id="blob-shape_7_" data-name="blob-shape (7)" transform="translate(176.768 143.3)">
        <path id="Path_78" d="M56.1-90.7c21.8 17.5 48.3 24.2 75.3 42.6 26.9 18.4 54.1 48.6 40.7 65.8C158.8 35 104.7 39.4 79 67.6s-23.1 80.1-43 112.1c-20 32-62.7 44.2-87.6 24-24.8-20.1-32-72.6-58.2-106.5s-71.5-49.3-66.6-67c5-17.8 60.2-37.9 85.8-62.3C-65-56.4-69-85-58.8-107.9c10.1-22.8 34.5-40 55.2-34.3 20.7 5.6 37.8 33.9 59.7 51.5z" class="cls-1" data-name="Path 78"/>
    </g>
</svg>
