<svg xmlns="http://www.w3.org/2000/svg" width="336" height="310.822" viewBox="0 0 336 310.822">
    <defs>
        <style>
            .cls-1{fill:#d2f2f4}
        </style>
    </defs>
    <g id="blob-shape_8_" data-name="blob-shape (8)" transform="translate(255.452 194.148)">
        <path id="Path_84" d="M21.213-190.281c19.3 5.784 21.546 44.683 32.247 77.146 10.7 32.391 29.861 58.348 26.752 81.2S51.8 10.718 32.059 37.687C12.32 64.583-1.779 98.71-25.783 111.074c-23.932 12.291-57.7 2.82-83.726-13.593C-135.61 81-153.975 57.642-180.365 36.169c-26.39-21.4-60.734-41-71.29-68.181-10.556-27.258 2.6-62.18 18.582-95.366 15.906-33.187 34.56-64.638 62.107-66.662 27.475-2.024 63.843 25.378 100.211 25.378s72.736-27.403 91.968-21.619z" class="cls-1" data-name="Path 84"/>
    </g>
</svg>
