<svg xmlns="http://www.w3.org/2000/svg" width="20" height="20" viewBox="0 0 20 20">
    <g fill="#444" fill-rule="evenodd">
        <path d="M4.743 5.134l.995 8.181a.421.421 0 0 0 .414.375h9.514a.418.418 0 0 0 .392-.282l2.93-8.274H4.744zm10.923 9.411H6.152c-.629 0-1.162-.483-1.24-1.124L3.382.856H.417A.422.422 0 0 1 0 .428C0 .192.186 0 .417 0H3.75c.21 0 .387.16.413.375l.475 3.903h14.946c.136 0 .263.069.34.182a.436.436 0 0 1 .05.392l-3.133 8.849c-.179.505-.651.844-1.175.844zM15 16.364c-.752 0-1.364.611-1.364 1.363s.612 1.364 1.364 1.364c.752 0 1.364-.612 1.364-1.364 0-.752-.612-1.363-1.364-1.363M15 20a2.275 2.275 0 0 1-2.273-2.273A2.275 2.275 0 0 1 15 15.455a2.275 2.275 0 0 1 2.273 2.272A2.275 2.275 0 0 1 15 20M5.91 16.364c-.753 0-1.365.611-1.365 1.363s.612 1.364 1.364 1.364c.752 0 1.364-.612 1.364-1.364 0-.752-.612-1.363-1.364-1.363m0 3.636a2.275 2.275 0 0 1-2.273-2.273 2.275 2.275 0 0 1 2.273-2.272 2.275 2.275 0 0 1 2.273 2.272A2.275 2.275 0 0 1 5.909 20"/>
    </g>
</svg>
