<svg xmlns="http://www.w3.org/2000/svg" xmlns:xlink="http://www.w3.org/1999/xlink" width="18" height="18" viewBox="0 0 18 18">
    <defs>
        <path id="a" d="M0 0h18v17.874H0z"/>
    </defs>
    <g fill="none" fill-rule="evenodd">
        <mask id="b" fill="#fff">
            <use xlink:href="#a"/>
        </mask>
        <path fill="#444" d="M8.139 8.94L.172 16.907a.566.566 0 1 0 .8.801L9 9.682l8.027 8.026a.565.565 0 0 0 .8 0 .566.566 0 0 0 0-.8L9.862 8.94 17.833.967a.566.566 0 1 0-.8-.801L9 8.199.967.166a.567.567 0 0 0-.801.801L8.139 8.94z" mask="url(#b)"/>
    </g>
</svg>
