<svg xmlns="http://www.w3.org/2000/svg" width="22" height="28" viewBox="0 0 22 28">
    <g fill="none" fill-rule="evenodd" stroke="#999" stroke-linecap="round">
        <path d="M14.043 14.867V9.295c0-1.225-1.043-2.228-2.318-2.228h-1.16v7.8"/>
        <path d="M17.522 12.267c0-1.43-1.044-2.6-2.32-2.6h-1.159"/>
        <path d="M21 16.6v-3.12c0-1.144-1.043-2.08-2.319-2.08h-1.16v3.12"/>
        <path stroke-linejoin="round" d="M21 16.826c0 4.522-2.353 5.652-2.353 10.174H5.706v-1.13C5.706 21.348 1 19.087 1 16.826V8.913c0-.625.527-1.13 1.176-1.13 1.295 0 2.353 1.017 2.353 2.26v3.392c0 .625.527 1.13 1.177 1.13s1.176-.505 1.176-1.13V2.696C6.882 1.757 7.671 1 8.647 1c.977 0 1.765.757 1.765 1.696v3.956"/>
    </g>
</svg>
