<svg xmlns="http://www.w3.org/2000/svg" width="227.42" height="245.079" viewBox="0 0 227.42 245.079">
    <defs>
        <style>
            .cls-1{fill:rgba(90,90,90,.1)}.cls-2{fill:#4dc3d1}.cls-3{fill:#6295cd}.cls-4{fill:url(#linear-gradient)}.cls-5{fill:#fff}
        </style>
        <linearGradient id="linear-gradient" x1=".081" x2=".469" y1=".379" y2="1.305" gradientUnits="objectBoundingBox">
            <stop offset="0" stop-color="#d63305"/>
            <stop offset=".366" stop-color="#cf3004"/>
            <stop offset=".899" stop-color="#bc2602"/>
            <stop offset="1" stop-color="#b72401"/>
        </linearGradient>
    </defs>
    <g id="Group_94" data-name="Group 94" transform="translate(-8.521)">
        <ellipse id="Ellipse_8" cx="113.71" cy="18.469" class="cls-1" data-name="Ellipse 8" rx="113.71" ry="18.469" transform="translate(8.52 208.141)"/>
        <ellipse id="Ellipse_9" cx="24.893" cy="24.893" class="cls-2" data-name="Ellipse 9" rx="24.893" ry="24.893" transform="translate(97.773 171.818)"/>
        <path id="Path_81" d="M204.237 354.192H41.1a20.175 20.175 0 0 0 0 40.349h163.137a20.175 20.175 0 0 0 0-40.349z" class="cls-3" data-name="Path 81" transform="translate(0 -200.89)"/>
        <path id="Path_82" d="M213.533 138.081V97.639a69.914 69.914 0 0 0-52.8-67.781 19.823 19.823 0 1 0-34.181 0 69.909 69.909 0 0 0-52.8 67.781v40.442A15.853 15.853 0 0 1 57.9 153.933h171.479a15.848 15.848 0 0 1-15.846-15.852zM143.64 27.746a7.926 7.926 0 1 1 7.929-7.923 7.926 7.926 0 0 1-7.929 7.923z" class="cls-2" data-name="Path 82" transform="translate(-20.974)"/>
        <ellipse id="Ellipse_10" cx="37.34" cy="37.34" class="cls-4" data-name="Ellipse 10" rx="37.34" ry="37.34" transform="translate(149.84 35.863)"/>
        <g id="Group_93" data-name="Group 93" transform="translate(170.565 49.839)">
            <path id="Path_83" d="M399.827 133.061q.064 2.921.065 5.484t-.065 5.484a25.42 25.42 0 0 1-1.071 7.042 16.093 16.093 0 0 1-3.018 5.679 13.821 13.821 0 0 1-5.1 3.764 20.586 20.586 0 0 1-14.732 0 13.8 13.8 0 0 1-5.1-3.764 16.051 16.051 0 0 1-3.018-5.679 25.34 25.34 0 0 1-1.071-7.042q-.065-2.92-.065-5.484t.065-5.484a25.355 25.355 0 0 1 1.071-7.042 16.073 16.073 0 0 1 3.018-5.679 14.138 14.138 0 0 1 5.1-3.8 20.139 20.139 0 0 1 14.732 0 14.157 14.157 0 0 1 5.1 3.8 16.115 16.115 0 0 1 3.018 5.679 25.435 25.435 0 0 1 1.071 7.042zm-27 10.968q.129 6.166 2.758 9.086t7.69 2.921q5.062 0 7.691-2.921t2.758-9.086q.064-2.92.065-5.484t-.065-5.484q-.13-6.165-2.758-9.118t-7.691-2.953q-5.061 0-7.69 2.953t-2.758 9.118q-.066 2.921-.065 5.484t.067 5.484z" class="cls-5" data-name="Path 83" transform="translate(-366.663 -115.149)"/>
        </g>
    </g>
</svg>
