<svg xmlns="http://www.w3.org/2000/svg" width="235.498" height="219.217" viewBox="0 0 235.498 219.217">
    <defs>
        <style>
            .cls-1{fill:rgba(90,90,90,.1)}.cls-2{fill:#414669}.cls-3{fill:#3375d3}.cls-4{fill:#285c99}.cls-5{fill:#050f35}.cls-6{fill:#b9783d}
        </style>
    </defs>
    <g id="Group_91" data-name="Group 91" transform="translate(-17.5 -30)">
        <ellipse id="Ellipse_8" cx="100.5" cy="12" class="cls-1" data-name="Ellipse 8" rx="100.5" ry="12" transform="translate(48.5 225.217)"/>
        <path id="Path_73" d="M251.9 57.145H77.947L73.966 41.22a4.909 4.909 0 0 0-5.19-3.7 4.89 4.89 0 0 0-.458-.024h-38.5a4.912 4.912 0 0 0 0 9.823h35.549l3.946 15.784 19.323 101.929-9.359 28.077a4.911 4.911 0 1 0 9.319 3.106l8.675-26.026 155.253-19.768a4.911 4.911 0 0 0 4.291-4.872V62.057a4.911 4.911 0 0 0-4.915-4.912zM80.042 66.968H118.8l2.469 23.456L84.693 91.5zm6.5 34.3l35.759-1.052 2.361 22.426-33.494 3.026zm11.181 58.962l-4.713-24.86 32.684-2.954 2.47 23.469c.016.155.04.308.07.459zm30.958-93.262h38.753v.288l1.281 21.772-37.6 1.106zm3.47 32.963l37.143-1.092 1.157 19.671-36 3.253zm5.8 55.177c0-.084 0-.167-.014-.25l-2.455-23.325 35.55-3.212 1.318 22.408zm39.313-88.14h34.366v20.8l-33.09.973zm1.858 31.582l32.513-.956v17.195l-31.391 2.837zm3 50.935l-1.3-22.048 30.814-2.785v20.9c0 .059.007.117.009.176zM247 141.224l-25.539 3.252v-20.712L247 121.456zm0-29.629l-25.548 2.305V97.3l25.539-.751zm0-24.867l-25.539.751V66.968H247z" class="cls-2" data-name="Path 73" transform="translate(-3.817 -3.817)"/>
        <path id="Path_74" d="M227.458 184.706v9.823a2.456 2.456 0 0 1-2.458 2.455H77.663a2.456 2.456 0 0 1-2.456-2.456v-9.823a2.456 2.456 0 0 1 2.456-2.456H225a2.456 2.456 0 0 1 2.458 2.457zM47.582 30H26.709a9.209 9.209 0 0 0-9.209 9.209 9.209 9.209 0 0 0 9.209 9.209h20.873a9.209 9.209 0 0 0 9.209-9.209A9.209 9.209 0 0 0 47.582 30z" class="cls-3" data-name="Path 74"/>
        <path id="Path_75" d="M293.049 339.956v34.379a2.456 2.456 0 0 1-2.456 2.456h-9.823a2.456 2.456 0 0 1-2.456-2.456v-34.379a2.456 2.456 0 0 1 2.456-2.456h9.823a2.456 2.456 0 0 1 2.456 2.456zm-95.77-2.456h-9.823a2.456 2.456 0 0 0-2.456 2.456v34.379a2.456 2.456 0 0 0 2.456 2.456h9.823a2.456 2.456 0 0 0 2.456-2.456v-34.379a2.456 2.456 0 0 0-2.457-2.456z" class="cls-4" data-name="Path 75" transform="translate(-85.236 -156.477)"/>
        <path id="Path_76" d="M292.694 404.69A17.19 17.19 0 1 1 275.5 387.5a17.19 17.19 0 0 1 17.194 17.19zM182.19 387.5a17.19 17.19 0 1 0 17.19 17.19 17.19 17.19 0 0 0-17.19-17.19z" class="cls-5" data-name="Path 76" transform="translate(-75.058 -181.921)"/>
        <path id="Path_77" d="M292.96 412.323a9.823 9.823 0 1 1-9.823-9.823 9.822 9.822 0 0 1 9.823 9.823zM189.823 402.5a9.823 9.823 0 1 0 9.823 9.823 9.822 9.822 0 0 0-9.823-9.823z" class="cls-6" data-name="Path 77" transform="translate(-82.691 -189.554)"/>
    </g>
</svg>
