<svg xmlns="http://www.w3.org/2000/svg" xmlns:xlink="http://www.w3.org/1999/xlink" width="21" height="21" viewBox="0 0 21 21">
    <defs>
        <path id="a" d="M0 0h20.376v20.886H0z"/>
    </defs>
    <g fill="none" fill-rule="evenodd">
        <mask id="b" fill="#fff">
            <use xlink:href="#a"/>
        </mask>
        <path fill="#F9F9F9" d="M12.525 10.39a3.018 3.018 0 0 0-.588 1.785v6.233L8.44 19.742v-7.567a3.018 3.018 0 0 0-.588-1.785L1.228 1.06H19.15l-6.624 9.33zM19.498 0H.878c-.33 0-.63.183-.78.475a.886.886 0 0 0 .07.923l6.821 9.61.008.01c.248.335.381.74.383 1.157v7.835a.87.87 0 0 0 1.213.808l3.834-1.462c.344-.105.572-.43.572-.82v-6.361a1.95 1.95 0 0 1 .381-1.157l.007-.01 6.822-9.61a.886.886 0 0 0 .07-.923.876.876 0 0 0-.78-.475z" mask="url(#b)"/>
    </g>
</svg>
