<svg xmlns="http://www.w3.org/2000/svg" xmlns:xlink="http://www.w3.org/1999/xlink" width="266" height="60" viewBox="0 0 266 60">
    <defs>
        <path id="a" d="M6.93.012a6.928 6.928 0 0 0-6.921 6.92 6.928 6.928 0 0 0 6.92 6.921 6.928 6.928 0 0 0 6.921-6.92A6.928 6.928 0 0 0 6.93.012zm-3.09 6.92a3.093 3.093 0 0 1 3.09-3.09 3.095 3.095 0 0 1 3.091 3.09 3.095 3.095 0 0 1-3.091 3.09 3.093 3.093 0 0 1-3.09-3.09z"/>
        <linearGradient id="b" x1="-8.825%" x2="61.853%" y1="108.824%" y2="38.148%">
            <stop offset="0%" stop-color="#4DC3D1"/>
            <stop offset="100%" stop-color="#6295CD"/>
        </linearGradient>
        <path id="d" d="M0 13.391v7.9a20.96 20.96 0 0 0 4.753 13.264 21.42 21.42 0 0 0 11.903 7.297 21.681 21.681 0 0 0 4.658.506h17.333c1.341 0 2.683-.124 3.991-.37h.003a20.27 20.27 0 0 0 1.493-.337 21.443 21.443 0 0 0 11.073-7.096A20.974 20.974 0 0 0 59.96 21.29v-1.835c0-7.283-5.996-13.21-13.365-13.21-3.57 0-6.927 1.373-9.452 3.87-2.523 2.495-3.913 5.811-3.913 9.34v1.835c0 2.648-.532 5.208-1.559 7.58.136.26.294.548.478.858a16.472 16.472 0 0 0 1.897 2.598 22.358 22.358 0 0 0 1.616-3.617 22.683 22.683 0 0 0 1.24-7.419v-1.835a9.465 9.465 0 0 1 2.838-6.775 9.688 9.688 0 0 1 6.855-2.806c5.347 0 9.694 4.299 9.694 9.581v1.835c0 2.038-.35 4.031-1.043 5.926a17.373 17.373 0 0 1-2.89 5.052 17.727 17.727 0 0 1-9.845 6.04 17.883 17.883 0 0 1-2.584.374c-.425.03-.852.047-1.28.047h-.838a19.546 19.546 0 0 1-3.09-1.838 19.34 19.34 0 0 1-1.922-1.597c-1.478-1.209-2.562-2.718-3.276-3.92-.715-1.206-1.06-2.108-1.06-2.108a19.05 19.05 0 0 1-1.294-3.87 19.35 19.35 0 0 1-.437-4.106v-7.9c0-3.528-1.391-6.844-3.914-9.34A13.364 13.364 0 0 0 13.365.182C5.994.182 0 6.108 0 13.392m18.01 25.033A17.738 17.738 0 0 1 7.604 32.27a17.272 17.272 0 0 1-2.89-5.052 17.204 17.204 0 0 1-1.045-5.926v-7.9c0-5.281 4.35-9.58 9.696-9.58 2.588 0 5.022.996 6.855 2.806a9.466 9.466 0 0 1 2.839 6.774v7.9c0 2.542.417 5.04 1.24 7.42a22.808 22.808 0 0 0 3.441 6.414c.096.124.19.248.286.365a23.65 23.65 0 0 0 .735.878c.19.218.387.432.585.64l.003.002a23.07 23.07 0 0 0 1.814 1.72h-9.85c-1.113 0-2.225-.103-3.303-.305"/>
        <linearGradient id="e" x1="15.682%" x2="79.201%" y1="71.163%" y2="27.004%">
            <stop offset="0%" stop-color="#4DC3D1"/>
            <stop offset="100%" stop-color="#6295CD"/>
        </linearGradient>
        <path id="g" d="M.091 6.92c0 3.712 3.105 6.734 6.921 6.734 3.816 0 6.92-3.022 6.92-6.733 0-3.715-3.104-6.735-6.92-6.735S.092 3.206.092 6.92m3.83 0c0-1.66 1.387-3.008 3.09-3.008 1.703 0 3.09 1.349 3.09 3.008 0 1.657-1.387 3.006-3.09 3.006-1.703 0-3.09-1.35-3.09-3.006"/>
        <linearGradient id="h" x1="-40.561%" x2="30.123%" y1="135.74%" y2="68.818%">
            <stop offset="0%" stop-color="#4DC3D1"/>
            <stop offset="100%" stop-color="#6295CD"/>
        </linearGradient>
    </defs>
    <g fill="none" fill-rule="evenodd">
        <g transform="translate(7)">
            <mask id="c" fill="#fff">
                <use xlink:href="#a"/>
            </mask>
            <path fill="url(#b)" d="M6.93.012a6.928 6.928 0 0 0-6.921 6.92 6.928 6.928 0 0 0 6.92 6.921 6.928 6.928 0 0 0 6.921-6.92A6.928 6.928 0 0 0 6.93.012zm-3.09 6.92a3.093 3.093 0 0 1 3.09-3.09 3.095 3.095 0 0 1 3.091 3.09 3.095 3.095 0 0 1-3.091 3.09 3.093 3.093 0 0 1-3.09-3.09z" mask="url(#c)"/>
        </g>
        <g transform="translate(0 17)">
            <mask id="f" fill="#fff">
                <use xlink:href="#d"/>
            </mask>
            <path fill="url(#e)" d="M0 13.391v7.9a20.96 20.96 0 0 0 4.753 13.264 21.42 21.42 0 0 0 11.903 7.297 21.681 21.681 0 0 0 4.658.506h17.333c1.341 0 2.683-.124 3.991-.37h.003a20.27 20.27 0 0 0 1.493-.337 21.443 21.443 0 0 0 11.073-7.096A20.974 20.974 0 0 0 59.96 21.29v-1.835c0-7.283-5.996-13.21-13.365-13.21-3.57 0-6.927 1.373-9.452 3.87-2.523 2.495-3.913 5.811-3.913 9.34v1.835c0 2.648-.532 5.208-1.559 7.58.136.26.294.548.478.858a16.472 16.472 0 0 0 1.897 2.598 22.358 22.358 0 0 0 1.616-3.617 22.683 22.683 0 0 0 1.24-7.419v-1.835a9.465 9.465 0 0 1 2.838-6.775 9.688 9.688 0 0 1 6.855-2.806c5.347 0 9.694 4.299 9.694 9.581v1.835c0 2.038-.35 4.031-1.043 5.926a17.373 17.373 0 0 1-2.89 5.052 17.727 17.727 0 0 1-9.845 6.04 17.883 17.883 0 0 1-2.584.374c-.425.03-.852.047-1.28.047h-.838a19.546 19.546 0 0 1-3.09-1.838 19.34 19.34 0 0 1-1.922-1.597c-1.478-1.209-2.562-2.718-3.276-3.92-.715-1.206-1.06-2.108-1.06-2.108a19.05 19.05 0 0 1-1.294-3.87 19.35 19.35 0 0 1-.437-4.106v-7.9c0-3.528-1.391-6.844-3.914-9.34A13.364 13.364 0 0 0 13.365.182C5.994.182 0 6.108 0 13.392m18.01 25.033A17.738 17.738 0 0 1 7.604 32.27a17.272 17.272 0 0 1-2.89-5.052 17.204 17.204 0 0 1-1.045-5.926v-7.9c0-5.281 4.35-9.58 9.696-9.58 2.588 0 5.022.996 6.855 2.806a9.466 9.466 0 0 1 2.839 6.774v7.9c0 2.542.417 5.04 1.24 7.42a22.808 22.808 0 0 0 3.441 6.414c.096.124.19.248.286.365a23.65 23.65 0 0 0 .735.878c.19.218.387.432.585.64l.003.002a23.07 23.07 0 0 0 1.814 1.72h-9.85c-1.113 0-2.225-.103-3.303-.305" mask="url(#f)"/>
        </g>
        <g transform="translate(41 5)">
            <mask id="i" fill="#fff">
                <use xlink:href="#g"/>
            </mask>
            <path fill="url(#h)" d="M.091 6.92c0 3.712 3.105 6.734 6.921 6.734 3.816 0 6.92-3.022 6.92-6.733 0-3.715-3.104-6.735-6.92-6.735S.092 3.206.092 6.92m3.83 0c0-1.66 1.387-3.008 3.09-3.008 1.703 0 3.09 1.349 3.09 3.008 0 1.657-1.387 3.006-3.09 3.006-1.703 0-3.09-1.35-3.09-3.006" mask="url(#i)"/>
        </g>
        <text fill="#FFF" font-family="Rubik-Regular, Rubik" font-size="45">
            <tspan x="82" y="52">Tarbeeta</tspan>
        </text>
    </g>
</svg>
