<svg xmlns="http://www.w3.org/2000/svg" width="12.771" height="18" viewBox="0 0 12.771 18">
    <defs>
        <style>
            .cls-1{fill:#54a0e7}
        </style>
    </defs>
    <g id="handset">
        <path id="Path_61" d="M2045.02 923.042h-.02c-1.929-.016-5.674-2.818-7.961-6.812l-.091-.158c-2.288-3.993-2.811-8.64-1.85-10.313a1.248 1.248 0 0 1 1.094-.716l2.431.11a1.006 1.006 0 0 1 .816.53l.029.057a1.643 1.643 0 0 1 .176.9c0 .16.01.363.024.63.057.482.126 1.053.2 1.441a1.084 1.084 0 0 1-.713 1.267l-.635.17a.447.447 0 0 0-.277.214c-.113.2.111 1.3 1.185 3.414.167.326.31.592.4.749s.247.415.444.725c1.276 1.994 2.116 2.744 2.344 2.749a.451.451 0 0 0 .329-.13l.463-.458a1.084 1.084 0 0 1 1.456.022c.315.276.813.655 1.161.916.2.133.376.241.511.326a1.612 1.612 0 0 1 .7.623l.034.056a.99.99 0 0 1 .038.95l-1.128 2.14a1.243 1.243 0 0 1-1.16.598zm-7.4-7.312l.052.09c2.293 4 5.815 6.458 7.338 6.472.4.02.487-.161.519-.215l1.117-2.119a.248.248 0 0 0-.016-.216l-.039-.064c-.062-.122-.088-.143-.448-.369-.14-.087-.317-.2-.547-.349a23.754 23.754 0 0 1-1.223-.963.343.343 0 0 0-.439-.05l-.46.454a1.237 1.237 0 0 1-.868.347c-.659-.011-1.655-1.053-2.962-3.1-.206-.322-.369-.591-.464-.755s-.244-.441-.417-.781c-1.658-3.259-1.292-3.908-1.172-4.123a1.207 1.207 0 0 1 .738-.572l.63-.169a.344.344 0 0 0 .174-.4c-.079-.411-.15-1-.211-1.517-.017-.3-.022-.507-.027-.673-.012-.424-.016-.456-.092-.572l-.036-.068a.249.249 0 0 0-.18-.119l-2.409-.11c-.043 0-.235 0-.429.341-.76 1.321-.422 5.6 1.85 9.567z" class="cls-1" data-name="Path 61" transform="translate(-2034.641 -905.042)"/>
    </g>
</svg>
