<svg xmlns="http://www.w3.org/2000/svg" xmlns:xlink="http://www.w3.org/1999/xlink" width="19" height="18" viewBox="0 0 19 18">
    <defs>
        <path id="a" d="M0 0h18.421v17.337H0z"/>
    </defs>
    <g fill="none" fill-rule="evenodd" transform="translate(.29 .21)">
        <mask id="b" fill="#fff">
            <use xlink:href="#a"/>
        </mask>
        <path fill="#AAA" d="M5.3.79c-.341 0-.691.044-1.044.134C2.634 1.338.751 2.9.781 5.94c.056 5.406 7.566 10.605 8.43 10.609.863-.004 8.373-5.203 8.429-10.609.03-3.04-1.853-4.603-3.475-5.017-1.876-.48-3.684.353-4.61 2.12-.135.258-.555.258-.69 0C8.114 1.607 6.78.79 5.3.79m3.91 16.547C7.63 17.337.06 11.652 0 5.95-.035 2.451 2.167.644 4.064.16c2.027-.514 3.978.242 5.147 1.942C10.38.4 12.335-.355 14.357.159c1.896.485 4.099 2.292 4.064 5.79-.059 5.703-7.631 11.388-9.21 11.388" mask="url(#b)"/>
    </g>
</svg>
