<svg xmlns="http://www.w3.org/2000/svg" xmlns:xlink="http://www.w3.org/1999/xlink" width="20" height="19" viewBox="0 0 20 19">
    <defs>
        <path id="a" d="M0 0h19.654v18.336H0z"/>
    </defs>
    <g fill="none" fill-rule="evenodd">
        <mask id="b" fill="#fff">
            <use xlink:href="#a"/>
        </mask>
        <path fill="#F3444A" d="M5.655.835c-.364 0-.738.046-1.114.142-1.73.438-3.74 2.09-3.707 5.306.06 5.718 8.072 11.215 8.993 11.22.921-.005 8.934-5.502 8.994-11.22.032-3.216-1.977-4.868-3.708-5.307-2.002-.506-3.93.374-4.917 2.242-.145.273-.593.273-.738 0C8.658 1.701 7.234.835 5.655.835m4.172 17.5c-1.686 0-9.764-6.013-9.826-12.044C-.037 2.592 2.312.681 4.336.168 6.5-.376 8.581.424 9.827 2.221 11.075.422 13.161-.376 15.318.168c2.023.513 4.373 2.424 4.336 6.123-.063 6.031-8.142 12.045-9.827 12.045" mask="url(#b)"/>
    </g>
</svg>
