<svg xmlns="http://www.w3.org/2000/svg" width="24" height="18" viewBox="0 0 24 18">
    <g fill="#999" fill-rule="evenodd">
        <path d="M23 15.5c0 .449-.202.848-.516 1.123l-8.068-9.856c-.007-.008-.017-.012-.023-.019-.007-.008-.01-.019-.018-.026-.018-.016-.04-.023-.059-.037-.028-.019-.053-.039-.085-.053a.457.457 0 0 0-.089-.027c-.032-.007-.062-.015-.094-.016a.501.501 0 0 0-.095.009c-.031.005-.061.009-.091.02-.032.011-.06.029-.091.048-.018.011-.041.016-.058.031-.008.007-.012.016-.02.023-.007.008-.017.01-.025.018l-2.566 2.687-4.814-5.504c-.011-.013-.026-.018-.038-.029-.013-.012-.02-.028-.034-.039-.014-.011-.031-.014-.046-.022a.453.453 0 0 0-.178-.067c-.033-.006-.065-.008-.099-.006a.423.423 0 0 0-.181.042.426.426 0 0 0-.085.049c-.015.009-.031.013-.044.025-.013.011-.019.026-.03.039-.012.012-.028.019-.038.033L1 9.854V2.5C1 1.673 1.673 1 2.5 1h19c.827 0 1.5.673 1.5 1.5v13zM17.727 17l-5.964-6.82L14 7.837 21.502 17h-3.775zM1 15.5v-3.998l4.938-6.463L16.398 17H2.5c-.827 0-1.5-.673-1.5-1.5zM21.5 0h-19A2.503 2.503 0 0 0 0 2.5v13C0 16.879 1.121 18 2.5 18h19c1.379 0 2.5-1.121 2.5-2.5v-13C24 1.122 22.879 0 21.5 0z"/>
        <path d="M19.441 5.75c-.827 0-1.5-.673-1.5-1.5s.673-1.5 1.5-1.5 1.5.673 1.5 1.5-.673 1.5-1.5 1.5m0-4a2.503 2.503 0 0 0-2.5 2.5c0 1.378 1.121 2.5 2.5 2.5 1.38 0 2.5-1.122 2.5-2.5s-1.12-2.5-2.5-2.5"/>
    </g>
</svg>
