<svg xmlns="http://www.w3.org/2000/svg" xmlns:xlink="http://www.w3.org/1999/xlink" width="119" height="25" viewBox="0 0 119 25">
    <defs>
        <path id="a" d="M2.97.005A2.969 2.969 0 0 0 .004 2.971 2.97 2.97 0 0 0 2.97 5.937a2.97 2.97 0 0 0 2.966-2.966A2.969 2.969 0 0 0 2.97.005zM1.646 2.971c0-.73.594-1.325 1.324-1.325.73 0 1.325.594 1.325 1.325a1.326 1.326 0 0 1-2.649 0z"/>
        <linearGradient id="b" x1="-8.825%" x2="61.853%" y1="108.824%" y2="38.148%">
            <stop offset="0%" stop-color="#4DC3D1"/>
            <stop offset="100%" stop-color="#6295CD"/>
        </linearGradient>
        <path id="d" d="M0 5.606v3.307a8.8 8.8 0 0 0 1.98 5.552 8.918 8.918 0 0 0 4.96 3.054 8.993 8.993 0 0 0 1.94.212h7.223a8.99 8.99 0 0 0 1.663-.154 8.414 8.414 0 0 0 .622-.14v-.001a8.93 8.93 0 0 0 4.615-2.971 8.805 8.805 0 0 0 1.98-5.552v-.769c0-3.048-2.498-5.53-5.568-5.53a5.553 5.553 0 0 0-3.939 1.62 5.476 5.476 0 0 0-1.63 3.91v.769c0 1.108-.222 2.18-.65 3.172a6.894 6.894 0 0 0 .99 1.447 9.535 9.535 0 0 0 1.19-4.62v-.768c0-1.07.42-2.078 1.183-2.836a4.027 4.027 0 0 1 2.856-1.174c2.227 0 4.039 1.8 4.039 4.01v.769c0 .852-.146 1.687-.435 2.48a7.28 7.28 0 0 1-1.204 2.115 7.381 7.381 0 0 1-4.102 2.529 7.419 7.419 0 0 1-1.077.156c-.177.013-.355.02-.533.02h-.35a8.067 8.067 0 0 1-2.088-1.438c-.616-.506-1.067-1.138-1.365-1.642-.298-.504-.441-.882-.441-.882a8 8 0 0 1-.54-1.62 8.136 8.136 0 0 1-.182-1.718V5.606c0-1.477-.58-2.866-1.63-3.91A5.555 5.555 0 0 0 5.569.076C2.498.076 0 2.557 0 5.606m7.504 10.479a7.386 7.386 0 0 1-4.336-2.577 7.232 7.232 0 0 1-1.64-4.595V5.606c0-2.211 1.813-4.01 4.04-4.01A4.03 4.03 0 0 1 8.426 2.77a3.972 3.972 0 0 1 1.183 2.836v3.307a9.562 9.562 0 0 0 1.95 5.79 7.758 7.758 0 0 0 .251.317 8.583 8.583 0 0 0 .418.472h.002c.238.254.49.494.756.72H8.88c-.465 0-.928-.042-1.377-.127"/>
        <linearGradient id="e" x1="15.682%" x2="79.201%" y1="71.361%" y2="26.79%">
            <stop offset="0%" stop-color="#4DC3D1"/>
            <stop offset="100%" stop-color="#6295CD"/>
        </linearGradient>
        <path id="g" d="M.04 2.966c0 1.59 1.33 2.886 2.965 2.886 1.636 0 2.966-1.295 2.966-2.886C5.971 1.374 4.641.08 3.005.08 1.37.08.04 1.374.04 2.966m1.642 0c0-.711.594-1.29 1.324-1.29.73 0 1.324.579 1.324 1.29 0 .71-.594 1.288-1.324 1.288-.73 0-1.324-.578-1.324-1.288"/>
        <linearGradient id="h" x1="-40.561%" x2="30.123%" y1="135.74%" y2="68.818%">
            <stop offset="0%" stop-color="#4DC3D1"/>
            <stop offset="100%" stop-color="#6295CD"/>
        </linearGradient>
    </defs>
    <g fill="none" fill-rule="evenodd">
        <g transform="translate(3)">
            <mask id="c" fill="#fff">
                <use xlink:href="#a"/>
            </mask>
            <path fill="url(#b)" d="M2.97.005A2.969 2.969 0 0 0 .004 2.971 2.97 2.97 0 0 0 2.97 5.937a2.97 2.97 0 0 0 2.966-2.966A2.969 2.969 0 0 0 2.97.005zM1.646 2.971c0-.73.594-1.325 1.324-1.325.73 0 1.325.594 1.325 1.325a1.326 1.326 0 0 1-2.649 0z" mask="url(#c)"/>
        </g>
        <g transform="translate(0 7)">
            <mask id="f" fill="#fff">
                <use xlink:href="#d"/>
            </mask>
            <path fill="url(#e)" d="M0 5.606v3.307a8.8 8.8 0 0 0 1.98 5.552 8.918 8.918 0 0 0 4.96 3.054 8.993 8.993 0 0 0 1.94.212h7.223a8.99 8.99 0 0 0 1.663-.154 8.414 8.414 0 0 0 .622-.14v-.001a8.93 8.93 0 0 0 4.615-2.971 8.805 8.805 0 0 0 1.98-5.552v-.769c0-3.048-2.498-5.53-5.568-5.53a5.553 5.553 0 0 0-3.939 1.62 5.476 5.476 0 0 0-1.63 3.91v.769c0 1.108-.222 2.18-.65 3.172a6.894 6.894 0 0 0 .99 1.447 9.535 9.535 0 0 0 1.19-4.62v-.768c0-1.07.42-2.078 1.183-2.836a4.027 4.027 0 0 1 2.856-1.174c2.227 0 4.039 1.8 4.039 4.01v.769c0 .852-.146 1.687-.435 2.48a7.28 7.28 0 0 1-1.204 2.115 7.381 7.381 0 0 1-4.102 2.529 7.419 7.419 0 0 1-1.077.156c-.177.013-.355.02-.533.02h-.35a8.067 8.067 0 0 1-2.088-1.438c-.616-.506-1.067-1.138-1.365-1.642-.298-.504-.441-.882-.441-.882a8 8 0 0 1-.54-1.62 8.136 8.136 0 0 1-.182-1.718V5.606c0-1.477-.58-2.866-1.63-3.91A5.555 5.555 0 0 0 5.569.076C2.498.076 0 2.557 0 5.606m7.504 10.479a7.386 7.386 0 0 1-4.336-2.577 7.232 7.232 0 0 1-1.64-4.595V5.606c0-2.211 1.813-4.01 4.04-4.01A4.03 4.03 0 0 1 8.426 2.77a3.972 3.972 0 0 1 1.183 2.836v3.307a9.562 9.562 0 0 0 1.95 5.79 7.758 7.758 0 0 0 .251.317 8.583 8.583 0 0 0 .418.472h.002c.238.254.49.494.756.72H8.88c-.465 0-.928-.042-1.377-.127" mask="url(#f)"/>
        </g>
        <g transform="translate(17 2)">
            <mask id="i" fill="#fff">
                <use xlink:href="#g"/>
            </mask>
            <path fill="url(#h)" d="M.04 2.966c0 1.59 1.33 2.886 2.965 2.886 1.636 0 2.966-1.295 2.966-2.886C5.971 1.374 4.641.08 3.005.08 1.37.08.04 1.374.04 2.966m1.642 0c0-.711.594-1.29 1.324-1.29.73 0 1.324.579 1.324 1.29 0 .71-.594 1.288-1.324 1.288-.73 0-1.324-.578-1.324-1.288" mask="url(#i)"/>
        </g>
        <text fill="#565656" font-family="Rubik-Regular, Rubik" font-size="20">
            <tspan x="37" y="19">Tarbeeta</tspan>
        </text>
    </g>
</svg>
