<svg xmlns="http://www.w3.org/2000/svg" xmlns:xlink="http://www.w3.org/1999/xlink" width="18" height="18" viewBox="0 0 18 18">
    <defs>
        <path id="a" d="M2.138.004A2.138 2.138 0 0 0 .003 2.139c0 1.178.958 2.136 2.135 2.136a2.138 2.138 0 0 0 2.136-2.136A2.138 2.138 0 0 0 2.138.004zm-.953 2.135c0-.526.428-.954.953-.954.526 0 .954.428.954.954a.954.954 0 0 1-1.907 0z"/>
        <linearGradient id="b" x1="-8.825%" x2="61.853%" y1="108.824%" y2="38.148%">
            <stop offset="0%" stop-color="#4DC3D1"/>
            <stop offset="100%" stop-color="#6295CD"/>
        </linearGradient>
        <path id="d" d="M0 4.036v2.381C0 7.87.506 9.29 1.426 10.415a6.421 6.421 0 0 0 3.57 2.199l.2.041c.392.074.795.112 1.198.112h5.2c.402 0 .805-.038 1.198-.112l.2-.041a6.43 6.43 0 0 0 3.57-2.2 6.34 6.34 0 0 0 1.426-3.997v-.553c0-2.195-1.799-3.981-4.01-3.981a3.998 3.998 0 0 0-2.835 1.166 3.943 3.943 0 0 0-1.174 2.815v.553c0 .798-.16 1.57-.468 2.284a4.964 4.964 0 0 0 .713 1.042 6.865 6.865 0 0 0 .857-3.326v-.553a2.9 2.9 0 0 1 2.908-2.888c1.604 0 2.908 1.296 2.908 2.888v.553c0 .614-.105 1.215-.313 1.786a5.242 5.242 0 0 1-.867 1.523 5.314 5.314 0 0 1-2.954 1.82 5.341 5.341 0 0 1-.775.113c-.127.01-.256.014-.384.014h-.251a5.808 5.808 0 0 1-1.504-1.035c-.443-.365-.768-.82-.983-1.182-.214-.363-.318-.635-.318-.635a5.76 5.76 0 0 1-.388-1.167 5.858 5.858 0 0 1-.131-1.237v-2.38A3.943 3.943 0 0 0 6.845 1.22 4 4 0 0 0 4.009.055C1.8.055 0 1.84 0 4.036m5.403 7.545a5.318 5.318 0 0 1-3.122-1.855 5.207 5.207 0 0 1-1.18-3.309v-2.38c0-1.593 1.305-2.888 2.908-2.888.777 0 1.507.3 2.057.845a2.86 2.86 0 0 1 .852 2.042v2.381a6.885 6.885 0 0 0 1.405 4.17l.085.11c.03.04.063.078.095.118l.125.146a6.935 6.935 0 0 0 .72.712H6.395c-.334 0-.668-.03-.99-.092"/>
        <linearGradient id="e" x1="15.682%" x2="79.201%" y1="71.361%" y2="26.79%">
            <stop offset="0%" stop-color="#4DC3D1"/>
            <stop offset="100%" stop-color="#6295CD"/>
        </linearGradient>
        <path id="g" d="M.028 2.136c0 1.145.958 2.077 2.136 2.077 1.177 0 2.135-.932 2.135-2.077C4.3.989 3.341.057 2.164.057.986.057.028.99.028 2.136m1.182 0c0-.512.428-.929.954-.929.525 0 .953.417.953.929a.942.942 0 0 1-.953.927.942.942 0 0 1-.954-.927"/>
        <linearGradient id="h" x1="-40.561%" x2="30.123%" y1="135.74%" y2="68.818%">
            <stop offset="0%" stop-color="#4DC3D1"/>
            <stop offset="100%" stop-color="#6295CD"/>
        </linearGradient>
    </defs>
    <g fill="none" fill-rule="evenodd">
        <g transform="translate(2.16)">
            <mask id="c" fill="#fff">
                <use xlink:href="#a"/>
            </mask>
            <path fill="url(#b)" d="M2.138.004A2.138 2.138 0 0 0 .003 2.139c0 1.178.958 2.136 2.135 2.136a2.138 2.138 0 0 0 2.136-2.136A2.138 2.138 0 0 0 2.138.004zm-.953 2.135c0-.526.428-.954.953-.954.526 0 .954.428.954.954a.954.954 0 0 1-1.907 0z" mask="url(#c)"/>
        </g>
        <g transform="translate(0 5.04)">
            <mask id="f" fill="#fff">
                <use xlink:href="#d"/>
            </mask>
            <path fill="url(#e)" d="M0 4.036v2.381C0 7.87.506 9.29 1.426 10.415a6.421 6.421 0 0 0 3.57 2.199l.2.041c.392.074.795.112 1.198.112h5.2c.402 0 .805-.038 1.198-.112l.2-.041a6.43 6.43 0 0 0 3.57-2.2 6.34 6.34 0 0 0 1.426-3.997v-.553c0-2.195-1.799-3.981-4.01-3.981a3.998 3.998 0 0 0-2.835 1.166 3.943 3.943 0 0 0-1.174 2.815v.553c0 .798-.16 1.57-.468 2.284a4.964 4.964 0 0 0 .713 1.042 6.865 6.865 0 0 0 .857-3.326v-.553a2.9 2.9 0 0 1 2.908-2.888c1.604 0 2.908 1.296 2.908 2.888v.553c0 .614-.105 1.215-.313 1.786a5.242 5.242 0 0 1-.867 1.523 5.314 5.314 0 0 1-2.954 1.82 5.341 5.341 0 0 1-.775.113c-.127.01-.256.014-.384.014h-.251a5.808 5.808 0 0 1-1.504-1.035c-.443-.365-.768-.82-.983-1.182-.214-.363-.318-.635-.318-.635a5.76 5.76 0 0 1-.388-1.167 5.858 5.858 0 0 1-.131-1.237v-2.38A3.943 3.943 0 0 0 6.845 1.22 4 4 0 0 0 4.009.055C1.8.055 0 1.84 0 4.036m5.403 7.545a5.318 5.318 0 0 1-3.122-1.855 5.207 5.207 0 0 1-1.18-3.309v-2.38c0-1.593 1.305-2.888 2.908-2.888.777 0 1.507.3 2.057.845a2.86 2.86 0 0 1 .852 2.042v2.381a6.885 6.885 0 0 0 1.405 4.17l.085.11c.03.04.063.078.095.118l.125.146a6.935 6.935 0 0 0 .72.712H6.395c-.334 0-.668-.03-.99-.092" mask="url(#f)"/>
        </g>
        <g transform="translate(12.24 1.44)">
            <mask id="i" fill="#fff">
                <use xlink:href="#g"/>
            </mask>
            <path fill="url(#h)" d="M.028 2.136c0 1.145.958 2.077 2.136 2.077 1.177 0 2.135-.932 2.135-2.077C4.3.989 3.341.057 2.164.057.986.057.028.99.028 2.136m1.182 0c0-.512.428-.929.954-.929.525 0 .953.417.953.929a.942.942 0 0 1-.953.927.942.942 0 0 1-.954-.927" mask="url(#i)"/>
        </g>
    </g>
</svg>
