<svg xmlns="http://www.w3.org/2000/svg" xmlns:xlink="http://www.w3.org/1999/xlink" width="18" height="18" viewBox="0 0 18 18">
    <defs>
        <path id="a" d="M0 0h18v18H0z"/>
    </defs>
    <g fill="none" fill-rule="evenodd">
        <mask id="b" fill="#fff">
            <use xlink:href="#a"/>
        </mask>
        <path fill="#444" d="M.75 7.125A6.382 6.382 0 0 1 7.125.75 6.382 6.382 0 0 1 13.5 7.125a6.357 6.357 0 0 1-1.866 4.502l-.004.002-.002.004A6.355 6.355 0 0 1 7.125 13.5 6.382 6.382 0 0 1 .75 7.125M17.89 17.36l-5.477-5.477a7.088 7.088 0 0 0 1.837-4.758C14.25 3.196 11.053 0 7.125 0 3.196 0 0 3.196 0 7.125c0 3.928 3.196 7.125 7.125 7.125 1.83 0 3.495-.699 4.758-1.837l5.477 5.477a.377.377 0 0 0 .53 0 .376.376 0 0 0 0-.53" mask="url(#b)"/>
    </g>
</svg>
