<svg xmlns="http://www.w3.org/2000/svg" xmlns:xlink="http://www.w3.org/1999/xlink" width="133.973" height="39.562" viewBox="0 0 133.973 39.562">
    <defs>
        <style>
            .cls-1{fill:none}.cls-2{clip-path:url(#clip-path)}.cls-3{fill:url(#linear-gradient)}.cls-4{clip-path:url(#clip-path-2)}.cls-5{fill:url(#linear-gradient-2)}.cls-6{clip-path:url(#clip-path-3)}.cls-7{fill:url(#linear-gradient-3)}.cls-8{fill:#fff;font-size:24px;font-family:GESSTwoMedium-Medium,GE SS Two;font-weight:500;letter-spacing:.09em}
        </style>
        <clipPath id="clip-path">
            <path id="Clip_2" d="M4.746 9.491a4.745 4.745 0 1 1 4.745-4.745 4.751 4.751 0 0 1-4.745 4.745zm0-6.865a2.119 2.119 0 1 0 2.12 2.12 2.122 2.122 0 0 0-2.12-2.121z" class="cls-1" data-name="Clip 2" transform="translate(.006 .008)"/>
        </clipPath>
        <linearGradient id="linear-gradient" x1="-.088" x2=".619" y1="1.088" y2=".381" gradientUnits="objectBoundingBox">
            <stop offset="0" stop-color="#4dc3d1"/>
            <stop offset="1" stop-color="#6295cd"/>
        </linearGradient>
        <clipPath id="clip-path-2">
            <path id="Clip_5" d="M25.764 28.248H14.209A14.367 14.367 0 0 1 11.547 28c-.155-.03-.3-.061-.443-.092a14.269 14.269 0 0 1-7.936-4.887A14.081 14.081 0 0 1 0 14.138V8.847a8.923 8.923 0 0 1 15.21-6.256 8.765 8.765 0 0 1 2.61 6.256v5.291a13.029 13.029 0 0 0 .292 2.749 12.855 12.855 0 0 0 .862 2.593 10.435 10.435 0 0 0 .707 1.411 10.117 10.117 0 0 0 2.184 2.626 13.006 13.006 0 0 0 3.342 2.3h.558c.28 0 .568-.011.854-.031a11.841 11.841 0 0 0 1.351-.174c.132-.025.253-.05.372-.076a11.815 11.815 0 0 0 6.558-4.045 11.577 11.577 0 0 0 2.622-7.353V12.91a6.472 6.472 0 0 0-11.029-4.538A6.351 6.351 0 0 0 24.6 12.91v1.229a15.253 15.253 0 0 1-.826 4.969A15.085 15.085 0 0 1 22.7 21.53a10.942 10.942 0 0 1-1.265-1.74 14.01 14.01 0 0 1-.319-.575 12.746 12.746 0 0 0 1.039-5.077V12.91a8.762 8.762 0 0 1 2.608-6.257 8.924 8.924 0 0 1 15.21 6.257v1.229a14.086 14.086 0 0 1-3.173 8.883 14.338 14.338 0 0 1-7.383 4.753 13.339 13.339 0 0 1-.995.226 14.415 14.415 0 0 1-2.658.247zM8.91 2.431a6.447 6.447 0 0 0-6.464 6.416v5.291a11.578 11.578 0 0 0 2.624 7.353 11.811 11.811 0 0 0 6.566 4.046c.1.023.216.046.371.076a11.875 11.875 0 0 0 2.2.2h6.566a15.308 15.308 0 0 1-1.21-1.152 13.484 13.484 0 0 1-.392-.43c-.1-.112-.2-.227-.279-.326l-.006-.008c-.068-.083-.138-.168-.205-.255s-.122-.155-.19-.244a15.281 15.281 0 0 1-3.122-9.266V8.847A6.35 6.35 0 0 0 13.48 4.31a6.448 6.448 0 0 0-4.57-1.879z" class="cls-1" data-name="Clip 5" transform="translate(0 .122)"/>
        </clipPath>
        <linearGradient id="linear-gradient-2" x1=".157" x2=".792" y1=".928" y2=".035" xlink:href="#linear-gradient"/>
        <clipPath id="clip-path-3">
            <path id="Clip_8" d="M4.746 9.236A4.688 4.688 0 0 1 0 4.619 4.689 4.689 0 0 1 4.746 0a4.688 4.688 0 0 1 4.745 4.619 4.688 4.688 0 0 1-4.745 4.617zm0-6.68a2.094 2.094 0 0 0-2.119 2.063A2.093 2.093 0 0 0 4.746 6.68a2.093 2.093 0 0 0 2.118-2.061 2.094 2.094 0 0 0-2.118-2.063z" class="cls-1" data-name="Clip 8" transform="translate(.063 .127)"/>
        </clipPath>
        <linearGradient id="linear-gradient-3" x1="-.406" x2=".301" y1="1.405" y2=".699" xlink:href="#linear-gradient"/>
    </defs>
    <g id="logo_arabic" data-name="logo arabic" transform="translate(0 -.008)">
        <g id="logo_copy" data-name="logo copy" transform="translate(94)">
            <g id="Group_3" data-name="Group 3" transform="translate(4.8)">
                <path id="Clip_2-2" d="M4.746 9.491a4.745 4.745 0 1 1 4.745-4.745 4.751 4.751 0 0 1-4.745 4.745zm0-6.865a2.119 2.119 0 1 0 2.12 2.12 2.122 2.122 0 0 0-2.12-2.121z" class="cls-1" data-name="Clip 2" transform="translate(.006 .008)"/>
                <g id="Group_3-2" class="cls-2" data-name="Group 3">
                    <path id="Fill_1" d="M4.746 9.491a4.745 4.745 0 1 1 4.745-4.745 4.751 4.751 0 0 1-4.745 4.745zm0-6.865a2.119 2.119 0 1 0 2.12 2.12 2.122 2.122 0 0 0-2.12-2.121z" class="cls-3" data-name="Fill 1" transform="translate(.006 .008)"/>
                </g>
            </g>
            <g id="Group_6" data-name="Group 6" transform="translate(0 11.2)">
                <path id="Clip_5-2" d="M25.764 28.248H14.209A14.367 14.367 0 0 1 11.547 28c-.155-.03-.3-.061-.443-.092a14.269 14.269 0 0 1-7.936-4.887A14.081 14.081 0 0 1 0 14.138V8.847a8.923 8.923 0 0 1 15.21-6.256 8.765 8.765 0 0 1 2.61 6.256v5.291a13.029 13.029 0 0 0 .292 2.749 12.855 12.855 0 0 0 .862 2.593 10.435 10.435 0 0 0 .707 1.411 10.117 10.117 0 0 0 2.184 2.626 13.006 13.006 0 0 0 3.342 2.3h.558c.28 0 .568-.011.854-.031a11.841 11.841 0 0 0 1.351-.174c.132-.025.253-.05.372-.076a11.815 11.815 0 0 0 6.558-4.045 11.577 11.577 0 0 0 2.622-7.353V12.91a6.472 6.472 0 0 0-11.029-4.538A6.351 6.351 0 0 0 24.6 12.91v1.229a15.253 15.253 0 0 1-.826 4.969A15.085 15.085 0 0 1 22.7 21.53a10.942 10.942 0 0 1-1.265-1.74 14.01 14.01 0 0 1-.319-.575 12.746 12.746 0 0 0 1.039-5.077V12.91a8.762 8.762 0 0 1 2.608-6.257 8.924 8.924 0 0 1 15.21 6.257v1.229a14.086 14.086 0 0 1-3.173 8.883 14.338 14.338 0 0 1-7.383 4.753 13.339 13.339 0 0 1-.995.226 14.415 14.415 0 0 1-2.658.247zM8.91 2.431a6.447 6.447 0 0 0-6.464 6.416v5.291a11.578 11.578 0 0 0 2.624 7.353 11.811 11.811 0 0 0 6.566 4.046c.1.023.216.046.371.076a11.875 11.875 0 0 0 2.2.2h6.566a15.308 15.308 0 0 1-1.21-1.152 13.484 13.484 0 0 1-.392-.43c-.1-.112-.2-.227-.279-.326l-.006-.008c-.068-.083-.138-.168-.205-.255s-.122-.155-.19-.244a15.281 15.281 0 0 1-3.122-9.266V8.847A6.35 6.35 0 0 0 13.48 4.31a6.448 6.448 0 0 0-4.57-1.879z" class="cls-1" data-name="Clip 5" transform="translate(0 .122)"/>
                <g id="Group_6-2" class="cls-4" data-name="Group 6">
                    <path id="Fill_4" d="M25.764 28.248H14.209A14.367 14.367 0 0 1 11.547 28c-.155-.03-.3-.061-.443-.092a14.269 14.269 0 0 1-7.936-4.887A14.081 14.081 0 0 1 0 14.138V8.847a8.923 8.923 0 0 1 15.21-6.256 8.765 8.765 0 0 1 2.61 6.256v5.291a13.029 13.029 0 0 0 .292 2.749 12.855 12.855 0 0 0 .862 2.593 10.435 10.435 0 0 0 .707 1.411 10.117 10.117 0 0 0 2.184 2.626 13.006 13.006 0 0 0 3.342 2.3h.558c.28 0 .568-.011.854-.031a11.841 11.841 0 0 0 1.351-.174c.132-.025.253-.05.372-.076a11.815 11.815 0 0 0 6.558-4.045 11.577 11.577 0 0 0 2.622-7.353V12.91a6.472 6.472 0 0 0-11.029-4.538A6.351 6.351 0 0 0 24.6 12.91v1.229a15.253 15.253 0 0 1-.826 4.969A15.085 15.085 0 0 1 22.7 21.53a10.942 10.942 0 0 1-1.265-1.74 14.01 14.01 0 0 1-.319-.575 12.746 12.746 0 0 0 1.039-5.077V12.91a8.762 8.762 0 0 1 2.608-6.257 8.924 8.924 0 0 1 15.21 6.257v1.229a14.086 14.086 0 0 1-3.173 8.883 14.338 14.338 0 0 1-7.383 4.753 13.339 13.339 0 0 1-.995.226 14.415 14.415 0 0 1-2.658.247zM8.91 2.431a6.447 6.447 0 0 0-6.464 6.416v5.291a11.578 11.578 0 0 0 2.624 7.353 11.811 11.811 0 0 0 6.566 4.046c.1.023.216.046.371.076a11.875 11.875 0 0 0 2.2.2h6.566a15.308 15.308 0 0 1-1.21-1.152 13.484 13.484 0 0 1-.392-.43c-.1-.112-.2-.227-.279-.326l-.006-.008c-.068-.083-.138-.168-.205-.255s-.122-.155-.19-.244a15.281 15.281 0 0 1-3.122-9.266V8.847A6.35 6.35 0 0 0 13.48 4.31a6.448 6.448 0 0 0-4.57-1.879z" class="cls-5" data-name="Fill 4" transform="translate(0 .122)"/>
                </g>
            </g>
            <g id="Group_9" data-name="Group 9" transform="translate(27.2 3.2)">
                <path id="Clip_8-2" d="M4.746 9.236A4.688 4.688 0 0 1 0 4.619 4.689 4.689 0 0 1 4.746 0a4.688 4.688 0 0 1 4.745 4.619 4.688 4.688 0 0 1-4.745 4.617zm0-6.68a2.094 2.094 0 0 0-2.119 2.063A2.093 2.093 0 0 0 4.746 6.68a2.093 2.093 0 0 0 2.118-2.061 2.094 2.094 0 0 0-2.118-2.063z" class="cls-1" data-name="Clip 8" transform="translate(.063 .127)"/>
                <g id="Group_9-2" class="cls-6" data-name="Group 9">
                    <path id="Fill_7" d="M4.746 9.236A4.688 4.688 0 0 1 0 4.619 4.689 4.689 0 0 1 4.746 0a4.688 4.688 0 0 1 4.745 4.619 4.688 4.688 0 0 1-4.745 4.617zm0-6.68a2.094 2.094 0 0 0-2.119 2.063A2.093 2.093 0 0 0 4.746 6.68a2.093 2.093 0 0 0 2.118-2.061 2.094 2.094 0 0 0-2.118-2.063z" class="cls-7" data-name="Fill 7" transform="translate(.063 .127)"/>
                </g>
            </g>
        </g>
        <text id="تربيطة" class="cls-8" transform="translate(0 8)">
            <tspan x="1.24" y="20">تربيطة</tspan>
        </text>
    </g>
</svg>
