<svg xmlns="http://www.w3.org/2000/svg" xmlns:xlink="http://www.w3.org/1999/xlink" width="115.74" height="29.672" viewBox="0 0 115.74 29.672">
    <defs>
        <style>
            .cls-1,.cls-2,.cls-3{fill:none}.cls-1{clip-rule:evenodd}.cls-3{fill-rule:evenodd}.cls-4{clip-path:url(#clip-path)}.cls-5{clip-path:url(#clip-path-2)}.cls-6{clip-path:url(#clip-path-3)}.cls-7{clip-path:url(#clip-path-5)}.cls-8{opacity:0}.cls-9{fill:url(#linear-gradient)}.cls-10{fill:url(#linear-gradient-2)}.cls-11{clip-path:url(#clip-path-6)}.cls-12{clip-path:url(#clip-path-8)}.cls-13{clip-path:url(#clip-path-10)}.cls-14{fill:url(#linear-gradient-3)}.cls-15{fill:url(#linear-gradient-4)}.cls-16{clip-path:url(#clip-path-11)}.cls-17{clip-path:url(#clip-path-13)}.cls-18{clip-path:url(#clip-path-15)}.cls-19{fill:url(#linear-gradient-5)}.cls-20{fill:url(#linear-gradient-6)}.cls-21{fill:#555}
        </style>
        <clipPath id="clip-path">
            <path id="Path_41" d="M89.164-99.994a3.563 3.563 0 0 0-3.564 3.559 3.563 3.563 0 0 0 3.559 3.559 3.563 3.563 0 0 0 3.559-3.559 3.563 3.563 0 0 0-3.554-3.559zm-1.589 3.559a1.591 1.591 0 0 1 1.589-1.59 1.592 1.592 0 0 1 1.59 1.59 1.592 1.592 0 0 1-1.59 1.589 1.591 1.591 0 0 1-1.589-1.589z" class="cls-1" data-name="Path 41"/>
        </clipPath>
        <clipPath id="clip-path-2">
            <path id="Path_40" d="M0 3314h1440V-150H0z" class="cls-2" data-name="Path 40"/>
        </clipPath>
        <clipPath id="clip-path-3">
            <path id="Rectangle_5" d="M0 0h8v8H0z" class="cls-2" data-name="Rectangle 5" transform="translate(85 -100)"/>
        </clipPath>
        <clipPath id="clip-path-5">
            <path id="Path_38" d="M85-92h8v-8h-8z" class="cls-2" data-name="Path 38"/>
        </clipPath>
        <linearGradient id="linear-gradient" x1=".059" x2=".059" y1=".333" y2="7.16" gradientUnits="objectBoundingBox">
            <stop offset="0"/>
            <stop offset="0" stop-color="#4dc3d1"/>
            <stop offset=".1" stop-color="#4fbed1"/>
            <stop offset=".2" stop-color="#51bad0"/>
            <stop offset=".3" stop-color="#53b5d0"/>
            <stop offset=".4" stop-color="#55b1cf"/>
            <stop offset=".5" stop-color="#58accf"/>
            <stop offset=".6" stop-color="#5aa7cf"/>
            <stop offset=".7" stop-color="#5ca3ce"/>
            <stop offset=".8" stop-color="#5e9ece"/>
            <stop offset=".9" stop-color="#609acd"/>
            <stop offset="1" stop-color="#6295cd"/>
            <stop offset="1"/>
        </linearGradient>
        <linearGradient id="linear-gradient-2" x1=".059" x2=".063" y1=".385" y2=".351" gradientUnits="objectBoundingBox">
            <stop offset="0" stop-color="#4dc3d1"/>
            <stop offset=".1" stop-color="#4fbed1"/>
            <stop offset=".2" stop-color="#51bad0"/>
            <stop offset=".3" stop-color="#53b5d0"/>
            <stop offset=".4" stop-color="#55b1cf"/>
            <stop offset=".5" stop-color="#58accf"/>
            <stop offset=".6" stop-color="#5aa7cf"/>
            <stop offset=".7" stop-color="#5ca3ce"/>
            <stop offset=".8" stop-color="#5e9ece"/>
            <stop offset=".9" stop-color="#609acd"/>
            <stop offset="1" stop-color="#6295cd"/>
        </linearGradient>
        <clipPath id="clip-path-6">
            <path id="Path_47" d="M82-84.873v3.973a10.559 10.559 0 0 0 2.376 6.662 10.7 10.7 0 0 0 5.952 3.665c.109.024.221.047.332.069a10.792 10.792 0 0 0 2 .186h8.667a10.787 10.787 0 0 0 2-.186 9.922 9.922 0 0 0 .746-.169 10.716 10.716 0 0 0 5.537-3.565 10.566 10.566 0 0 0 2.37-6.662v-.922a6.667 6.667 0 0 0-6.683-6.635 6.664 6.664 0 0 0-4.726 1.943 6.571 6.571 0 0 0-1.956 4.692v.922a9.585 9.585 0 0 1-.78 3.807c.068.131.147.275.239.431a8.272 8.272 0 0 0 .949 1.3 11.256 11.256 0 0 0 .808-1.817 11.443 11.443 0 0 0 .62-3.727v-.922a4.766 4.766 0 0 1 1.419-3.4 4.833 4.833 0 0 1 3.427-1.41 4.835 4.835 0 0 1 4.847 4.813v.922a8.682 8.682 0 0 1-.521 2.977 8.738 8.738 0 0 1-1.445 2.538 8.858 8.858 0 0 1-4.923 3.034 7.018 7.018 0 0 1-.278.057 8.906 8.906 0 0 1-1.013.13 9.1 9.1 0 0 1-.64.023h-.424a9.762 9.762 0 0 1-1.545-.923 9.68 9.68 0 0 1-.961-.8 7.514 7.514 0 0 1-1.638-1.97 7.7 7.7 0 0 1-.53-1.059 9.6 9.6 0 0 1-.647-1.944 9.764 9.764 0 0 1-.219-2.062v-3.968a6.572 6.572 0 0 0-1.957-4.692 6.666 6.666 0 0 0-4.725-1.943A6.666 6.666 0 0 0 82-84.873M91.005-72.3a8.642 8.642 0 0 1-.278-.057A8.863 8.863 0 0 1 85.8-75.39a8.686 8.686 0 0 1-1.445-2.538 8.678 8.678 0 0 1-.522-2.977v-3.968a4.836 4.836 0 0 1 4.848-4.813 4.837 4.837 0 0 1 3.428 1.41 4.766 4.766 0 0 1 1.419 3.4v3.976a11.437 11.437 0 0 0 .62 3.727 11.474 11.474 0 0 0 1.721 3.222c.048.062.1.125.143.183l.159.2c.069.083.138.164.209.244.1.11.193.217.292.322a11.556 11.556 0 0 0 .907.864h-4.922a8.936 8.936 0 0 1-1.651-.153" class="cls-1" data-name="Path 47"/>
        </clipPath>
        <clipPath id="clip-path-8">
            <path id="Rectangle_6" d="M0 0h30v22H0z" class="cls-2" data-name="Rectangle 6" transform="translate(82 -92)"/>
        </clipPath>
        <clipPath id="clip-path-10">
            <path id="Path_44" d="M82-70h30v-22H82z" class="cls-2" data-name="Path 44"/>
        </clipPath>
        <linearGradient id="linear-gradient-3" x1=".057" x2=".057" y1=".39" y2="7.217" xlink:href="#linear-gradient"/>
        <linearGradient id="linear-gradient-4" x1=".06" x2=".073" y1=".521" y2=".395" xlink:href="#linear-gradient-2"/>
        <clipPath id="clip-path-11">
            <path id="Path_53" d="M102.447-94.041a3.516 3.516 0 0 0 3.559 3.463 3.516 3.516 0 0 0 3.559-3.463 3.516 3.516 0 0 0-3.559-3.464 3.516 3.516 0 0 0-3.559 3.464m1.97 0a1.57 1.57 0 0 1 1.589-1.547 1.57 1.57 0 0 1 1.589 1.547 1.57 1.57 0 0 1-1.589 1.546 1.57 1.57 0 0 1-1.589-1.546" class="cls-1" data-name="Path 53"/>
        </clipPath>
        <clipPath id="clip-path-13">
            <path id="Rectangle_7" d="M0 0h8v8H0z" class="cls-2" data-name="Rectangle 7" transform="translate(102 -98)"/>
        </clipPath>
        <clipPath id="clip-path-15">
            <path id="Path_50" d="M102-90h8v-8h-8z" class="cls-2" data-name="Path 50"/>
        </clipPath>
        <linearGradient id="linear-gradient-5" x1=".071" x2=".071" y1=".35" y2="7.177" xlink:href="#linear-gradient"/>
        <linearGradient id="linear-gradient-6" x1=".069" x2=".073" y1=".415" y2=".382" xlink:href="#linear-gradient-2"/>
    </defs>
    <g id="logo" transform="translate(-8 -50.006)">
        <g id="Group_39" class="cls-4" data-name="Group 39" transform="translate(-74 150)">
            <g id="Group_38" class="cls-5" data-name="Group 38">
                <g id="Group_37" class="cls-6" data-name="Group 37">
                    <g id="Group_36" class="cls-4" data-name="Group 36">
                        <g id="Group_35" class="cls-7" data-name="Group 35">
                            <g id="Group_33" class="cls-8" data-name="Group 33">
                                <g id="Group_32" data-name="Group 32" transform="translate(85.605 -99.994)">
                                    <path id="Path_36" d="M-85.6-50.006h1440v150h-1440z" class="cls-9" data-name="Path 36"/>
                                </g>
                            </g>
                            <g id="Group_34" data-name="Group 34" transform="translate(85.605 -99.994)">
                                <path id="Path_37" d="M-85.6-50.006h1440v150h-1440z" class="cls-10" data-name="Path 37"/>
                            </g>
                        </g>
                    </g>
                </g>
            </g>
        </g>
        <g id="Group_47" class="cls-11" data-name="Group 47" transform="translate(-74 150)">
            <g id="Group_46" class="cls-5" data-name="Group 46">
                <g id="Group_45" class="cls-12" data-name="Group 45">
                    <g id="Group_44" class="cls-11" data-name="Group 44">
                        <g id="Group_43" class="cls-13" data-name="Group 43">
                            <g id="Group_41" class="cls-8" data-name="Group 41">
                                <g id="Group_40" data-name="Group 40" transform="translate(82 -91.509)">
                                    <path id="Path_42" d="M-82-58.491h1440v150H-82z" class="cls-14" data-name="Path 42"/>
                                </g>
                            </g>
                            <g id="Group_42" data-name="Group 42" transform="translate(82 -91.509)">
                                <path id="Path_43" d="M-82-58.491h1440v150H-82z" class="cls-15" data-name="Path 43"/>
                            </g>
                        </g>
                    </g>
                </g>
            </g>
        </g>
        <g id="Group_55" class="cls-16" data-name="Group 55" transform="translate(-74 150)">
            <g id="Group_54" class="cls-5" data-name="Group 54">
                <g id="Group_53" class="cls-17" data-name="Group 53">
                    <g id="Group_52" class="cls-16" data-name="Group 52">
                        <g id="Group_51" class="cls-18" data-name="Group 51">
                            <g id="Group_49" class="cls-8" data-name="Group 49">
                                <g id="Group_48" data-name="Group 48" transform="translate(102.447 -97.504)">
                                    <path id="Path_48" d="M-102.447-52.5h1440v150h-1440z" class="cls-19" data-name="Path 48"/>
                                </g>
                            </g>
                            <g id="Group_50" data-name="Group 50" transform="translate(102.447 -97.504)">
                                <path id="Path_49" d="M-102.447-52.5h1440v150h-1440z" class="cls-20" data-name="Path 49"/>
                            </g>
                        </g>
                    </g>
                </g>
            </g>
        </g>
        <g id="Group_56" data-name="Group 56" transform="translate(44 53)">
            <path id="Path_65" d="M10.38-14a.519.519 0 0 1 .38.16.519.519 0 0 1 .16.38v.72a.519.519 0 0 1-.16.38.519.519 0 0 1-.38.16H6.64V-.54a.519.519 0 0 1-.16.38.519.519 0 0 1-.38.16h-.82a.519.519 0 0 1-.38-.16.519.519 0 0 1-.16-.38V-12.2H1a.519.519 0 0 1-.38-.16.519.519 0 0 1-.16-.38v-.72a.519.519 0 0 1 .16-.38A.519.519 0 0 1 1-14zm-.02 11.38a2.932 2.932 0 0 1 .32-1.4 3.069 3.069 0 0 1 .88-1.02 4.769 4.769 0 0 1 1.31-.68 9.73 9.73 0 0 1 1.59-.4l2.82-.46v-.26a1.8 1.8 0 0 0-.67-1.53 2.677 2.677 0 0 0-1.67-.51 2.29 2.29 0 0 0-1.33.32 3.334 3.334 0 0 0-.77.76.658.658 0 0 1-.26.22.985.985 0 0 1-.38.06h-.6a.553.553 0 0 1-.39-.16.445.445 0 0 1-.15-.38 1.932 1.932 0 0 1 .35-.9 3.083 3.083 0 0 1 .84-.82 4.937 4.937 0 0 1 1.22-.59 4.619 4.619 0 0 1 1.47-.23 5.189 5.189 0 0 1 1.67.26 3.688 3.688 0 0 1 1.32.76 3.45 3.45 0 0 1 .86 1.24 4.369 4.369 0 0 1 .31 1.7v6.1a.519.519 0 0 1-.16.38.519.519 0 0 1-.38.16h-.74a.519.519 0 0 1-.38-.16.519.519 0 0 1-.16-.38v-.82a1.83 1.83 0 0 1-.56.67 3.779 3.779 0 0 1-.87.49 5.285 5.285 0 0 1-1.02.3 5.357 5.357 0 0 1-.99.1 4.437 4.437 0 0 1-1.43-.22 3.459 3.459 0 0 1-1.1-.59 2.6 2.6 0 0 1-.7-.89 2.551 2.551 0 0 1-.25-1.12zm3.68 1.1a3.808 3.808 0 0 0 1.32-.22 3.1 3.1 0 0 0 1.03-.61 2.633 2.633 0 0 0 .66-.93 3.032 3.032 0 0 0 .23-1.2v-.5l-2.36.38a5.688 5.688 0 0 0-2 .64 1.3 1.3 0 0 0-.74 1.14 1.056 1.056 0 0 0 .1.44 1.306 1.306 0 0 0 .32.42 1.613 1.613 0 0 0 .57.32 2.712 2.712 0 0 0 .87.12zM27.3-10.4a.519.519 0 0 1 .38.16.519.519 0 0 1 .16.38v.64a.519.519 0 0 1-.16.38.519.519 0 0 1-.38.16h-1.16a2.033 2.033 0 0 0-2.3 2.3v5.84a.519.519 0 0 1-.16.38.519.519 0 0 1-.38.16h-.74a.519.519 0 0 1-.38-.16.519.519 0 0 1-.16-.38v-9.32a.519.519 0 0 1 .16-.38.519.519 0 0 1 .38-.16h.74a.519.519 0 0 1 .38.16.519.519 0 0 1 .16.38v.62a2.5 2.5 0 0 1 .96-.88 3.273 3.273 0 0 1 1.46-.28zm7.2-.2a4.594 4.594 0 0 1 1.75.33 4.152 4.152 0 0 1 1.41.94 4.554 4.554 0 0 1 .96 1.49 6.074 6.074 0 0 1 .42 1.98q.02.3.02.65t-.02.65a6.074 6.074 0 0 1-.42 1.98 4.673 4.673 0 0 1-.96 1.5 4.084 4.084 0 0 1-1.41.95A4.594 4.594 0 0 1 34.5.2a4.039 4.039 0 0 1-1.96-.41 3.5 3.5 0 0 1-1.14-.95v.62a.519.519 0 0 1-.16.38.519.519 0 0 1-.38.16h-.74a.519.519 0 0 1-.38-.16.519.519 0 0 1-.16-.38v-13.12a.519.519 0 0 1 .16-.38.519.519 0 0 1 .38-.16h.74a.519.519 0 0 1 .38.16.519.519 0 0 1 .16.38v4.42a3.746 3.746 0 0 1 1.12-.93 3.93 3.93 0 0 1 1.98-.43zm-3.1 6.26a3.093 3.093 0 0 0 .88 2.06 2.773 2.773 0 0 0 2.02.76 2.633 2.633 0 0 0 2.07-.84 3.7 3.7 0 0 0 .85-2.28q.02-.56 0-1.12a3.7 3.7 0 0 0-.85-2.28 2.633 2.633 0 0 0-2.07-.84 2.711 2.711 0 0 0-2.02.77 3.417 3.417 0 0 0-.88 2.19 6.23 6.23 0 0 0-.04.79 6.23 6.23 0 0 0 .04.79zm9.66-1.86a5.272 5.272 0 0 1 .44-1.72 4.87 4.87 0 0 1 .94-1.4 4.132 4.132 0 0 1 1.39-.94 4.634 4.634 0 0 1 1.81-.34 5.031 5.031 0 0 1 1.93.35 3.98 3.98 0 0 1 1.45 1.01 4.5 4.5 0 0 1 .92 1.6 6.489 6.489 0 0 1 .32 2.1V-5a.519.519 0 0 1-.16.38.519.519 0 0 1-.38.16h-6.88v.12a2.825 2.825 0 0 0 .83 2.09 2.792 2.792 0 0 0 1.97.73 3.45 3.45 0 0 0 1.65-.31 3.459 3.459 0 0 0 .89-.69 1.163 1.163 0 0 1 .28-.22.836.836 0 0 1 .36-.06h.6a.588.588 0 0 1 .4.16.389.389 0 0 1 .14.38 2.126 2.126 0 0 1-.34.79 2.985 2.985 0 0 1-.81.8 4.861 4.861 0 0 1-1.32.62 6.149 6.149 0 0 1-1.85.25 4.447 4.447 0 0 1-1.8-.35 4.323 4.323 0 0 1-1.39-.96 4.79 4.79 0 0 1-.95-1.44 5.677 5.677 0 0 1-.44-1.81 8.489 8.489 0 0 1 0-1.84zm1.78.06h5.62v-.06a2.561 2.561 0 0 0-.77-1.95 2.857 2.857 0 0 0-2.05-.73 3.015 3.015 0 0 0-1.08.19 2.7 2.7 0 0 0-.88.54 2.518 2.518 0 0 0-.6.85 2.95 2.95 0 0 0-.24 1.1zm9.36-.06a5.272 5.272 0 0 1 .44-1.72 4.87 4.87 0 0 1 .94-1.4 4.132 4.132 0 0 1 1.39-.94 4.634 4.634 0 0 1 1.81-.34 5.031 5.031 0 0 1 1.93.35 3.98 3.98 0 0 1 1.45 1.01 4.5 4.5 0 0 1 .92 1.6 6.489 6.489 0 0 1 .32 2.1V-5a.519.519 0 0 1-.16.38.519.519 0 0 1-.38.16h-6.88v.12a2.825 2.825 0 0 0 .83 2.09 2.792 2.792 0 0 0 1.97.73 3.45 3.45 0 0 0 1.65-.31 3.459 3.459 0 0 0 .89-.69 1.163 1.163 0 0 1 .28-.22.836.836 0 0 1 .36-.06h.6a.588.588 0 0 1 .4.16.389.389 0 0 1 .14.38 2.126 2.126 0 0 1-.34.79 2.985 2.985 0 0 1-.81.8 4.861 4.861 0 0 1-1.32.62 6.149 6.149 0 0 1-1.85.25 4.447 4.447 0 0 1-1.8-.35 4.323 4.323 0 0 1-1.39-.96 4.79 4.79 0 0 1-.95-1.44 5.677 5.677 0 0 1-.44-1.81 8.489 8.489 0 0 1 0-1.84zm1.78.06h5.62v-.06a2.561 2.561 0 0 0-.77-1.95 2.857 2.857 0 0 0-2.05-.73 3.015 3.015 0 0 0-1.08.19 2.7 2.7 0 0 0-.88.54 2.518 2.518 0 0 0-.6.85 2.95 2.95 0 0 0-.24 1.1zM66.46-3.5a3.419 3.419 0 0 0 .07.71 1.431 1.431 0 0 0 .25.57 1.141 1.141 0 0 0 .51.37 2.349 2.349 0 0 0 .85.13h1.06a.519.519 0 0 1 .38.16.519.519 0 0 1 .16.38v.64a.519.519 0 0 1-.16.38.519.519 0 0 1-.38.16h-1.26a3.17 3.17 0 0 1-2.52-.9 3.858 3.858 0 0 1-.78-2.6v-5.18h-1.48a.519.519 0 0 1-.38-.16.519.519 0 0 1-.16-.38v-.64a.519.519 0 0 1 .16-.38.519.519 0 0 1 .38-.16h1.48v-3.26a.519.519 0 0 1 .16-.38.519.519 0 0 1 .38-.16h.74a.519.519 0 0 1 .38.16.519.519 0 0 1 .16.38v3.26H69a.519.519 0 0 1 .38.16.519.519 0 0 1 .16.38v.64a.519.519 0 0 1-.16.38.519.519 0 0 1-.38.16h-2.54zm4.54.88a2.932 2.932 0 0 1 .32-1.4 3.069 3.069 0 0 1 .88-1.02 4.769 4.769 0 0 1 1.31-.68 9.73 9.73 0 0 1 1.59-.4l2.82-.46v-.26a1.8 1.8 0 0 0-.67-1.53 2.677 2.677 0 0 0-1.67-.51 2.29 2.29 0 0 0-1.33.32 3.334 3.334 0 0 0-.77.76.658.658 0 0 1-.26.22.985.985 0 0 1-.38.06h-.6a.553.553 0 0 1-.39-.16.445.445 0 0 1-.15-.38 1.932 1.932 0 0 1 .35-.9 3.083 3.083 0 0 1 .84-.82 4.937 4.937 0 0 1 1.22-.59 4.619 4.619 0 0 1 1.47-.23 5.189 5.189 0 0 1 1.67.26 3.688 3.688 0 0 1 1.32.76 3.45 3.45 0 0 1 .86 1.24 4.369 4.369 0 0 1 .31 1.7v6.1a.519.519 0 0 1-.16.38.519.519 0 0 1-.38.16h-.74a.519.519 0 0 1-.38-.16.519.519 0 0 1-.16-.38v-.82a1.83 1.83 0 0 1-.56.67 3.779 3.779 0 0 1-.87.49 5.285 5.285 0 0 1-1.02.3 5.357 5.357 0 0 1-.99.1 4.437 4.437 0 0 1-1.43-.22 3.459 3.459 0 0 1-1.1-.59 2.6 2.6 0 0 1-.7-.89A2.551 2.551 0 0 1 71-2.62zm3.68 1.1A3.808 3.808 0 0 0 76-1.74a3.1 3.1 0 0 0 1.03-.61 2.633 2.633 0 0 0 .66-.93 3.032 3.032 0 0 0 .23-1.2v-.5l-2.36.38a5.688 5.688 0 0 0-2 .64 1.3 1.3 0 0 0-.74 1.14 1.056 1.056 0 0 0 .1.44 1.306 1.306 0 0 0 .32.42 1.613 1.613 0 0 0 .57.32 2.712 2.712 0 0 0 .87.12z" class="cls-21" data-name="Path 65" transform="translate(0 19)"/>
        </g>
    </g>
</svg>
