<svg xmlns="http://www.w3.org/2000/svg" xmlns:xlink="http://www.w3.org/1999/xlink" width="121.98" height="29.671" viewBox="0 0 121.98 29.671">
    <defs>
        <style>
            .cls-1{fill:none}.cls-2{clip-path:url(#clip-path)}.cls-3{fill:url(#linear-gradient)}.cls-4{clip-path:url(#clip-path-2)}.cls-5{fill:url(#linear-gradient-2)}.cls-6{clip-path:url(#clip-path-3)}.cls-7{fill:url(#linear-gradient-3)}.cls-8{fill:#565656;font-size:20px;font-family:GESSTwoMedium-Medium,GE SS Two;font-weight:500;letter-spacing:.09em}
        </style>
        <clipPath id="clip-path">
            <path id="Clip_2" d="M3.559 7.118a3.559 3.559 0 1 1 3.559-3.559 3.564 3.564 0 0 1-3.559 3.559zm0-5.149a1.589 1.589 0 1 0 1.59 1.59 1.591 1.591 0 0 0-1.59-1.59z" class="cls-1" data-name="Clip 2" transform="translate(.005 .006)"/>
        </clipPath>
        <linearGradient id="linear-gradient" x1="-.088" x2=".619" y1="1.088" y2=".381" gradientUnits="objectBoundingBox">
            <stop offset="0" stop-color="#4dc3d1"/>
            <stop offset="1" stop-color="#6295cd"/>
        </linearGradient>
        <clipPath id="clip-path-2">
            <path id="Clip_5" d="M19.324 21.186h-8.667a10.811 10.811 0 0 1-2-.185 32.434 32.434 0 0 1-.332-.068 10.709 10.709 0 0 1-5.952-3.666A10.562 10.562 0 0 1 0 10.6V6.636a6.693 6.693 0 0 1 11.408-4.693 6.572 6.572 0 0 1 1.957 4.693V10.6a9.779 9.779 0 0 0 .219 2.062 9.6 9.6 0 0 0 .647 1.944 7.72 7.72 0 0 0 .529 1.059 7.4 7.4 0 0 0 1.64 1.973 9.589 9.589 0 0 0 .96.8 9.747 9.747 0 0 0 1.545.923h.419c.209 0 .424-.008.64-.023a8.849 8.849 0 0 0 1.013-.131c.1-.019.193-.038.278-.058a8.856 8.856 0 0 0 4.923-3.034 8.684 8.684 0 0 0 1.967-5.515v-.918a4.855 4.855 0 0 0-8.275-3.4 4.765 4.765 0 0 0-1.419 3.4v.918a11.435 11.435 0 0 1-.62 3.727 11.291 11.291 0 0 1-.807 1.816 8.154 8.154 0 0 1-.949-1.3 8.175 8.175 0 0 1-.239-.431 9.564 9.564 0 0 0 .779-3.807v-.923a6.572 6.572 0 0 1 1.957-4.692A6.693 6.693 0 0 1 29.98 9.682v.918a10.566 10.566 0 0 1-2.38 6.667 10.761 10.761 0 0 1-5.538 3.565c-.146.038-.285.072-.413.1-.11.023-.222.047-.333.068a10.821 10.821 0 0 1-1.992.186zM6.683 1.823a4.836 4.836 0 0 0-4.848 4.813V10.6A8.684 8.684 0 0 0 3.8 16.118a8.87 8.87 0 0 0 4.925 3.036c.075.017.163.034.279.057a8.917 8.917 0 0 0 1.652.153h4.925a11.494 11.494 0 0 1-.907-.864 10.386 10.386 0 0 1-.502-.567c-.045-.054-.1-.125-.159-.2-.04-.049-.079-.1-.119-.152l-.024-.032a11.459 11.459 0 0 1-2.341-6.949V6.636a4.765 4.765 0 0 0-1.419-3.4 4.838 4.838 0 0 0-3.427-1.413z" class="cls-1" data-name="Clip 5" transform="translate(0 .091)"/>
        </clipPath>
        <linearGradient id="linear-gradient-2" x1=".157" x2=".792" y1=".928" y2=".035" xlink:href="#linear-gradient"/>
        <clipPath id="clip-path-3">
            <path id="Clip_8" d="M3.559 6.926A3.516 3.516 0 0 1 0 3.464 3.517 3.517 0 0 1 3.559 0a3.516 3.516 0 0 1 3.559 3.464 3.515 3.515 0 0 1-3.559 3.462zm0-5.009A1.57 1.57 0 0 0 1.97 3.464a1.57 1.57 0 0 0 1.589 1.545 1.569 1.569 0 0 0 1.589-1.545 1.57 1.57 0 0 0-1.589-1.547z" class="cls-1" data-name="Clip 8" transform="translate(.047 .096)"/>
        </clipPath>
        <linearGradient id="linear-gradient-3" x1="-.406" x2=".301" y1="1.405" y2=".699" xlink:href="#linear-gradient"/>
    </defs>
    <g id="logo_arabic" data-name="logo arabic" transform="translate(20 -.006)">
        <g id="logo_copy" data-name="logo copy" transform="translate(72)">
            <g id="Group_3" data-name="Group 3" transform="translate(3.6)">
                <path id="Clip_2-2" d="M3.559 7.118a3.559 3.559 0 1 1 3.559-3.559 3.564 3.564 0 0 1-3.559 3.559zm0-5.149a1.589 1.589 0 1 0 1.59 1.59 1.591 1.591 0 0 0-1.59-1.59z" class="cls-1" data-name="Clip 2" transform="translate(.005 .006)"/>
                <g id="Group_3-2" class="cls-2" data-name="Group 3">
                    <path id="Fill_1" d="M3.559 7.118a3.559 3.559 0 1 1 3.559-3.559 3.564 3.564 0 0 1-3.559 3.559zm0-5.149a1.589 1.589 0 1 0 1.59 1.59 1.591 1.591 0 0 0-1.59-1.59z" class="cls-3" data-name="Fill 1" transform="translate(.005 .006)"/>
                </g>
            </g>
            <g id="Group_6" data-name="Group 6" transform="translate(0 8.4)">
                <path id="Clip_5-2" d="M19.324 21.186h-8.667a10.811 10.811 0 0 1-2-.185 32.434 32.434 0 0 1-.332-.068 10.709 10.709 0 0 1-5.952-3.666A10.562 10.562 0 0 1 0 10.6V6.636a6.693 6.693 0 0 1 11.408-4.693 6.572 6.572 0 0 1 1.957 4.693V10.6a9.779 9.779 0 0 0 .219 2.062 9.6 9.6 0 0 0 .647 1.944 7.72 7.72 0 0 0 .529 1.059 7.4 7.4 0 0 0 1.64 1.973 9.589 9.589 0 0 0 .96.8 9.747 9.747 0 0 0 1.545.923h.419c.209 0 .424-.008.64-.023a8.849 8.849 0 0 0 1.013-.131c.1-.019.193-.038.278-.058a8.856 8.856 0 0 0 4.923-3.034 8.684 8.684 0 0 0 1.967-5.515v-.918a4.855 4.855 0 0 0-8.275-3.4 4.765 4.765 0 0 0-1.419 3.4v.918a11.435 11.435 0 0 1-.62 3.727 11.291 11.291 0 0 1-.807 1.816 8.154 8.154 0 0 1-.949-1.3 8.175 8.175 0 0 1-.239-.431 9.564 9.564 0 0 0 .779-3.807v-.923a6.572 6.572 0 0 1 1.957-4.692A6.693 6.693 0 0 1 29.98 9.682v.918a10.566 10.566 0 0 1-2.38 6.667 10.761 10.761 0 0 1-5.538 3.565c-.146.038-.285.072-.413.1-.11.023-.222.047-.333.068a10.821 10.821 0 0 1-1.992.186zM6.683 1.823a4.836 4.836 0 0 0-4.848 4.813V10.6A8.684 8.684 0 0 0 3.8 16.118a8.87 8.87 0 0 0 4.925 3.036c.075.017.163.034.279.057a8.917 8.917 0 0 0 1.652.153h4.925a11.494 11.494 0 0 1-.907-.864 10.386 10.386 0 0 1-.502-.567c-.045-.054-.1-.125-.159-.2-.04-.049-.079-.1-.119-.152l-.024-.032a11.459 11.459 0 0 1-2.341-6.949V6.636a4.765 4.765 0 0 0-1.419-3.4 4.838 4.838 0 0 0-3.427-1.413z" class="cls-1" data-name="Clip 5" transform="translate(0 .091)"/>
                <g id="Group_6-2" class="cls-4" data-name="Group 6">
                    <path id="Fill_4" d="M19.324 21.186h-8.667a10.811 10.811 0 0 1-2-.185 32.434 32.434 0 0 1-.332-.068 10.709 10.709 0 0 1-5.952-3.666A10.562 10.562 0 0 1 0 10.6V6.636a6.693 6.693 0 0 1 11.408-4.693 6.572 6.572 0 0 1 1.957 4.693V10.6a9.779 9.779 0 0 0 .219 2.062 9.6 9.6 0 0 0 .647 1.944 7.72 7.72 0 0 0 .529 1.059 7.4 7.4 0 0 0 1.64 1.973 9.589 9.589 0 0 0 .96.8 9.747 9.747 0 0 0 1.545.923h.419c.209 0 .424-.008.64-.023a8.849 8.849 0 0 0 1.013-.131c.1-.019.193-.038.278-.058a8.856 8.856 0 0 0 4.923-3.034 8.684 8.684 0 0 0 1.967-5.515v-.918a4.855 4.855 0 0 0-8.275-3.4 4.765 4.765 0 0 0-1.419 3.4v.918a11.435 11.435 0 0 1-.62 3.727 11.291 11.291 0 0 1-.807 1.816 8.154 8.154 0 0 1-.949-1.3 8.175 8.175 0 0 1-.239-.431 9.564 9.564 0 0 0 .779-3.807v-.923a6.572 6.572 0 0 1 1.957-4.692A6.693 6.693 0 0 1 29.98 9.682v.918a10.566 10.566 0 0 1-2.38 6.667 10.761 10.761 0 0 1-5.538 3.565c-.146.038-.285.072-.413.1-.11.023-.222.047-.333.068a10.821 10.821 0 0 1-1.992.186zM6.683 1.823a4.836 4.836 0 0 0-4.848 4.813V10.6A8.684 8.684 0 0 0 3.8 16.118a8.87 8.87 0 0 0 4.925 3.036c.075.017.163.034.279.057a8.917 8.917 0 0 0 1.652.153h4.925a11.494 11.494 0 0 1-.907-.864 10.386 10.386 0 0 1-.502-.567c-.045-.054-.1-.125-.159-.2-.04-.049-.079-.1-.119-.152l-.024-.032a11.459 11.459 0 0 1-2.341-6.949V6.636a4.765 4.765 0 0 0-1.419-3.4 4.838 4.838 0 0 0-3.427-1.413z" class="cls-5" data-name="Fill 4" transform="translate(0 .091)"/>
                </g>
            </g>
            <g id="Group_9" data-name="Group 9" transform="translate(20.4 2.4)">
                <path id="Clip_8-2" d="M3.559 6.926A3.516 3.516 0 0 1 0 3.464 3.517 3.517 0 0 1 3.559 0a3.516 3.516 0 0 1 3.559 3.464 3.515 3.515 0 0 1-3.559 3.462zm0-5.009A1.57 1.57 0 0 0 1.97 3.464a1.57 1.57 0 0 0 1.589 1.545 1.569 1.569 0 0 0 1.589-1.545 1.57 1.57 0 0 0-1.589-1.547z" class="cls-1" data-name="Clip 8" transform="translate(.047 .096)"/>
                <g id="Group_9-2" class="cls-6" data-name="Group 9">
                    <path id="Fill_7" d="M3.559 6.926A3.516 3.516 0 0 1 0 3.464 3.517 3.517 0 0 1 3.559 0a3.516 3.516 0 0 1 3.559 3.464 3.515 3.515 0 0 1-3.559 3.462zm0-5.009A1.57 1.57 0 0 0 1.97 3.464a1.57 1.57 0 0 0 1.589 1.545 1.569 1.569 0 0 0 1.589-1.545 1.57 1.57 0 0 0-1.589-1.547z" class="cls-7" data-name="Fill 7" transform="translate(.047 .096)"/>
                </g>
            </g>
        </g>
        <text id="تربيطة" class="cls-8" transform="translate(-20 4)">
            <tspan x="13.7" y="17">تربيطة</tspan>
        </text>
    </g>
</svg>
