<svg xmlns="http://www.w3.org/2000/svg" xmlns:xlink="http://www.w3.org/1999/xlink" width="126.337" height="33.992" viewBox="0 0 126.337 33.992">
    <defs>
        <style>
            .cls-1{fill:none}.cls-2{clip-path:url(#clip-path)}.cls-3{fill:url(#linear-gradient)}.cls-4{clip-path:url(#clip-path-2)}.cls-5{fill:url(#linear-gradient-2)}.cls-6{clip-path:url(#clip-path-3)}.cls-7{fill:url(#linear-gradient-3)}.cls-8{fill:#fff}
        </style>
        <clipPath id="clip-path">
            <path id="Clip_2" d="M4.078 8.154a4.077 4.077 0 1 1 4.077-4.076 4.082 4.082 0 0 1-4.077 4.076zm0-5.9A1.821 1.821 0 1 0 5.9 4.078a1.823 1.823 0 0 0-1.822-1.822z" class="cls-1" data-name="Clip 2"/>
        </clipPath>
        <linearGradient id="linear-gradient" x1="-.088" x2=".619" y1="1.088" y2=".381" gradientUnits="objectBoundingBox">
            <stop offset="0" stop-color="#4dc3d1"/>
            <stop offset="1" stop-color="#6295cd"/>
        </linearGradient>
        <clipPath id="clip-path-2">
            <path id="Clip_5" d="M22.137 24.271h-9.928a12.344 12.344 0 0 1-2.287-.213 13.107 13.107 0 0 1-.38-.079 12.26 12.26 0 0 1-6.819-4.2A12.1 12.1 0 0 1 0 12.148V7.6a7.667 7.667 0 0 1 13.068-5.374A7.531 7.531 0 0 1 15.311 7.6v4.546a11.2 11.2 0 0 0 .251 2.362 11.045 11.045 0 0 0 .741 2.228 8.966 8.966 0 0 0 .607 1.213 8.693 8.693 0 0 0 1.877 2.256 11.175 11.175 0 0 0 2.871 1.977h.479c.241 0 .488-.009.734-.027a10.173 10.173 0 0 0 1.161-.149c.113-.021.218-.043.319-.066a10.151 10.151 0 0 0 5.64-3.476 9.947 9.947 0 0 0 2.253-6.318v-1.054a5.561 5.561 0 0 0-9.48-3.9 5.457 5.457 0 0 0-1.625 3.9v1.056a13.106 13.106 0 0 1-.71 4.269A12.961 12.961 0 0 1 19.5 18.5a9.4 9.4 0 0 1-1.085-1.5 12.046 12.046 0 0 1-.274-.494 10.951 10.951 0 0 0 .893-4.362v-1.052a7.528 7.528 0 0 1 2.241-5.376 7.668 7.668 0 0 1 13.07 5.376v1.056a12.1 12.1 0 0 1-2.723 7.633 12.319 12.319 0 0 1-6.343 4.084 10.82 10.82 0 0 1-.473.115c-.111.024-.235.05-.381.079a12.386 12.386 0 0 1-2.288.212zM7.656 2.089A5.54 5.54 0 0 0 2.1 7.6v4.546a9.948 9.948 0 0 0 2.254 6.318A10.148 10.148 0 0 0 10 21.942c.085.02.185.04.319.066a10.2 10.2 0 0 0 1.892.176h5.639a13.152 13.152 0 0 1-1.039-.99 10.678 10.678 0 0 1-.336-.37c-.085-.1-.169-.195-.24-.28l-.006-.007c-.058-.071-.119-.145-.176-.219s-.105-.133-.163-.21a13.129 13.129 0 0 1-2.683-7.961V7.6a5.456 5.456 0 0 0-1.625-3.9 5.54 5.54 0 0 0-3.926-1.611z" class="cls-1" data-name="Clip 5"/>
        </clipPath>
        <linearGradient id="linear-gradient-2" x1=".157" x2=".792" y1=".928" y2=".035" xlink:href="#linear-gradient"/>
        <clipPath id="clip-path-3">
            <path id="Clip_8" d="M4.078 7.935A4.028 4.028 0 0 1 0 3.968 4.029 4.029 0 0 1 4.078 0a4.028 4.028 0 0 1 4.076 3.968 4.028 4.028 0 0 1-4.076 3.967zm0-5.739a1.8 1.8 0 0 0-1.82 1.772 1.8 1.8 0 0 0 1.82 1.771A1.8 1.8 0 0 0 5.9 3.968 1.8 1.8 0 0 0 4.078 2.2z" class="cls-1" data-name="Clip 8"/>
        </clipPath>
        <linearGradient id="linear-gradient-3" x1="-.406" x2=".301" y1="1.405" y2=".699" xlink:href="#linear-gradient"/>
    </defs>
    <g id="logo_arabic" data-name="logo arabic" transform="translate(-2.008 -.008)">
        <g id="logo_copy" data-name="logo copy" transform="translate(94)">
            <g id="Group_3" data-name="Group 3" transform="translate(4.129 .008)">
                <path id="Clip_2-2" d="M4.078 8.154a4.077 4.077 0 1 1 4.077-4.076 4.082 4.082 0 0 1-4.077 4.076zm0-5.9A1.821 1.821 0 1 0 5.9 4.078a1.823 1.823 0 0 0-1.822-1.822z" class="cls-1" data-name="Clip 2"/>
                <g id="Group_3-2" class="cls-2" data-name="Group 3">
                    <path id="Fill_1" d="M4.078 8.154a4.077 4.077 0 1 1 4.077-4.076 4.082 4.082 0 0 1-4.077 4.076zm0-5.9A1.821 1.821 0 1 0 5.9 4.078a1.823 1.823 0 0 0-1.822-1.822z" class="cls-3" data-name="Fill 1"/>
                </g>
            </g>
            <g id="Group_6" data-name="Group 6" transform="translate(0 9.729)">
                <path id="Clip_5-2" d="M22.137 24.271h-9.928a12.344 12.344 0 0 1-2.287-.213 13.107 13.107 0 0 1-.38-.079 12.26 12.26 0 0 1-6.819-4.2A12.1 12.1 0 0 1 0 12.148V7.6a7.667 7.667 0 0 1 13.068-5.374A7.531 7.531 0 0 1 15.311 7.6v4.546a11.2 11.2 0 0 0 .251 2.362 11.045 11.045 0 0 0 .741 2.228 8.966 8.966 0 0 0 .607 1.213 8.693 8.693 0 0 0 1.877 2.256 11.175 11.175 0 0 0 2.871 1.977h.479c.241 0 .488-.009.734-.027a10.173 10.173 0 0 0 1.161-.149c.113-.021.218-.043.319-.066a10.151 10.151 0 0 0 5.64-3.476 9.947 9.947 0 0 0 2.253-6.318v-1.054a5.561 5.561 0 0 0-9.48-3.9 5.457 5.457 0 0 0-1.625 3.9v1.056a13.106 13.106 0 0 1-.71 4.269A12.961 12.961 0 0 1 19.5 18.5a9.4 9.4 0 0 1-1.085-1.5 12.046 12.046 0 0 1-.274-.494 10.951 10.951 0 0 0 .893-4.362v-1.052a7.528 7.528 0 0 1 2.241-5.376 7.668 7.668 0 0 1 13.07 5.376v1.056a12.1 12.1 0 0 1-2.723 7.633 12.319 12.319 0 0 1-6.343 4.084 10.82 10.82 0 0 1-.473.115c-.111.024-.235.05-.381.079a12.386 12.386 0 0 1-2.288.212zM7.656 2.089A5.54 5.54 0 0 0 2.1 7.6v4.546a9.948 9.948 0 0 0 2.254 6.318A10.148 10.148 0 0 0 10 21.942c.085.02.185.04.319.066a10.2 10.2 0 0 0 1.892.176h5.639a13.152 13.152 0 0 1-1.039-.99 10.678 10.678 0 0 1-.336-.37c-.085-.1-.169-.195-.24-.28l-.006-.007c-.058-.071-.119-.145-.176-.219s-.105-.133-.163-.21a13.129 13.129 0 0 1-2.683-7.961V7.6a5.456 5.456 0 0 0-1.625-3.9 5.54 5.54 0 0 0-3.926-1.611z" class="cls-1" data-name="Clip 5"/>
                <g id="Group_6-2" class="cls-4" data-name="Group 6">
                    <path id="Fill_4" d="M22.137 24.271h-9.928a12.344 12.344 0 0 1-2.287-.213 13.107 13.107 0 0 1-.38-.079 12.26 12.26 0 0 1-6.819-4.2A12.1 12.1 0 0 1 0 12.148V7.6a7.667 7.667 0 0 1 13.068-5.374A7.531 7.531 0 0 1 15.311 7.6v4.546a11.2 11.2 0 0 0 .251 2.362 11.045 11.045 0 0 0 .741 2.228 8.966 8.966 0 0 0 .607 1.213 8.693 8.693 0 0 0 1.877 2.256 11.175 11.175 0 0 0 2.871 1.977h.479c.241 0 .488-.009.734-.027a10.173 10.173 0 0 0 1.161-.149c.113-.021.218-.043.319-.066a10.151 10.151 0 0 0 5.64-3.476 9.947 9.947 0 0 0 2.253-6.318v-1.054a5.561 5.561 0 0 0-9.48-3.9 5.457 5.457 0 0 0-1.625 3.9v1.056a13.106 13.106 0 0 1-.71 4.269A12.961 12.961 0 0 1 19.5 18.5a9.4 9.4 0 0 1-1.085-1.5 12.046 12.046 0 0 1-.274-.494 10.951 10.951 0 0 0 .893-4.362v-1.052a7.528 7.528 0 0 1 2.241-5.376 7.668 7.668 0 0 1 13.07 5.376v1.056a12.1 12.1 0 0 1-2.723 7.633 12.319 12.319 0 0 1-6.343 4.084 10.82 10.82 0 0 1-.473.115c-.111.024-.235.05-.381.079a12.386 12.386 0 0 1-2.288.212zM7.656 2.089A5.54 5.54 0 0 0 2.1 7.6v4.546a9.948 9.948 0 0 0 2.254 6.318A10.148 10.148 0 0 0 10 21.942c.085.02.185.04.319.066a10.2 10.2 0 0 0 1.892.176h5.639a13.152 13.152 0 0 1-1.039-.99 10.678 10.678 0 0 1-.336-.37c-.085-.1-.169-.195-.24-.28l-.006-.007c-.058-.071-.119-.145-.176-.219s-.105-.133-.163-.21a13.129 13.129 0 0 1-2.683-7.961V7.6a5.456 5.456 0 0 0-1.625-3.9 5.54 5.54 0 0 0-3.926-1.611z" class="cls-5" data-name="Fill 4"/>
                </g>
            </g>
            <g id="Group_9" data-name="Group 9" transform="translate(23.424 2.86)">
                <path id="Clip_8-2" d="M4.078 7.935A4.028 4.028 0 0 1 0 3.968 4.029 4.029 0 0 1 4.078 0a4.028 4.028 0 0 1 4.076 3.968 4.028 4.028 0 0 1-4.076 3.967zm0-5.739a1.8 1.8 0 0 0-1.82 1.772 1.8 1.8 0 0 0 1.82 1.771A1.8 1.8 0 0 0 5.9 3.968 1.8 1.8 0 0 0 4.078 2.2z" class="cls-1" data-name="Clip 8"/>
                <g id="Group_9-2" class="cls-6" data-name="Group 9">
                    <path id="Fill_7" d="M4.078 7.935A4.028 4.028 0 0 1 0 3.968 4.029 4.029 0 0 1 4.078 0a4.028 4.028 0 0 1 4.076 3.968 4.028 4.028 0 0 1-4.076 3.967zm0-5.739a1.8 1.8 0 0 0-1.82 1.772 1.8 1.8 0 0 0 1.82 1.771A1.8 1.8 0 0 0 5.9 3.968 1.8 1.8 0 0 0 4.078 2.2z" class="cls-7" data-name="Fill 7"/>
                </g>
            </g>
        </g>
        <path id="تربيطة" d="M17.3 20h-2.9a4.488 4.488 0 0 1-4.344-3.552 3.688 3.688 0 0 1-3.072 1.8c-3.072 0-4.968-2.3-4.968-5.64 0-3.6 1.9-5.832 4.968-5.832H12.9v7.608c0 1.872.888 2.88 2.688 2.88h1.7zm-7.18-7.656v-3.48H7.7c-1.872 0-3.024 1.488-3.024 3.72 0 1.848 1.032 3.432 2.64 3.432 1.748 0 2.804-1.632 2.804-3.672zM8.152 4.832h-2.64V2.144h2.64zm4.536 0h-2.64V2.144h2.64zm27 15.168H16.72v-2.736h4.656V4.52h2.64l-.336 8.688c2.232-2.856 4.536-4.152 7.08-4.152 4.056 0 6.144 2.76 6.216 8.208h2.712zm-5.5-2.736c.024-.264.024-.5.024-.768 0-3.072-1.392-5.04-3.7-5.04-2.688 0-5.5 2.448-7.056 5.808zM50.056 20H38.992v-2.736h2.568a1.669 1.669 0 0 0 1.632-.816 4.21 4.21 0 0 0 .288-1.824V9.1h2.664v5.38a4.4 4.4 0 0 1-.6 2.784h4.512zm-4.008 5.256h-2.64v-2.688h2.64zm-4.536 0h-2.64v-2.688h2.64zM54.736 20h-5.3v-2.736h5.3zm3.24 0h-5.3v-2.736h5.3zm4.7-4.344c0 2.9-1.344 4.344-4.008 4.344H56.08v-2.736h2.04a1.7 1.7 0 0 0 1.7-.792 5.228 5.228 0 0 0 .192-1.728V9.1h2.668zm-.024 9.6H60.04v-2.688h2.616zm12-5.256h-4.3c-.408 2.568-2.592 3.984-5.856 3.984v-2.3c2.232 0 3.336-1.1 3.336-3.408V9.1h2.688v8.16h4.128zm4.416 0h-5.3v-2.736h5.3zm3.24 0h-5.3v-2.736h5.3zm4.92-4.344c0 2.9-1.344 4.344-4.008 4.344h-2.828v-2.736h2.256a1.7 1.7 0 0 0 1.7-.792 5.228 5.228 0 0 0 .192-1.728V9.1h2.688zM82.624 6.9h-2.64V4.232h2.64zm4.536 0h-2.64V4.232h2.64z" class="cls-8" transform="translate(0 6)"/>
    </g>
</svg>
