<svg xmlns="http://www.w3.org/2000/svg" xmlns:xlink="http://www.w3.org/1999/xlink" width="162.623" height="40.053" viewBox="0 0 162.623 40.053">
    <defs>
        <style>
            .cls-1{fill:none}.cls-2{clip-path:url(#clip-path)}.cls-3{fill:url(#linear-gradient)}.cls-4{clip-path:url(#clip-path-2)}.cls-5{fill:url(#linear-gradient-2)}.cls-6{clip-path:url(#clip-path-3)}.cls-7{fill:url(#linear-gradient-3)}.cls-8{fill:#fff}
        </style>
        <clipPath id="clip-path">
            <path id="Clip_2" d="M4.8 9.608A4.8 4.8 0 1 1 9.609 4.8 4.81 4.81 0 0 1 4.8 9.608zm0-6.951A2.146 2.146 0 1 0 6.951 4.8 2.148 2.148 0 0 0 4.8 2.658z" class="cls-1" data-name="Clip 2" transform="translate(.006 .008)"/>
        </clipPath>
        <linearGradient id="linear-gradient" x1="-.088" x2=".619" y1="1.088" y2=".381" gradientUnits="objectBoundingBox">
            <stop offset="0" stop-color="#4dc3d1"/>
            <stop offset="1" stop-color="#6295cd"/>
        </linearGradient>
        <clipPath id="clip-path-2">
            <path id="Clip_5" d="M26.084 28.6h-11.7a14.5 14.5 0 0 1-2.695-.251 14.804 14.804 0 0 1-.448-.092 14.456 14.456 0 0 1-8.034-4.948A14.254 14.254 0 0 1 0 14.314V8.957a9.034 9.034 0 0 1 15.4-6.333 8.87 8.87 0 0 1 2.641 6.333v5.357a13.226 13.226 0 0 0 .3 2.784 12.984 12.984 0 0 0 .874 2.624 10.479 10.479 0 0 0 .715 1.429 9.987 9.987 0 0 0 2.211 2.659 13.1 13.1 0 0 0 3.383 2.328h.565c.283 0 .574-.011.864-.031a11.934 11.934 0 0 0 1.368-.176c.144-.027.267-.052.376-.077a11.958 11.958 0 0 0 6.645-4.1 11.71 11.71 0 0 0 2.654-7.444v-1.241a6.553 6.553 0 0 0-11.174-4.594 6.432 6.432 0 0 0-1.915 4.594v1.245a15.442 15.442 0 0 1-.837 5.031 15.168 15.168 0 0 1-1.091 2.455 11.112 11.112 0 0 1-1.279-1.765c-.106-.179-.212-.37-.322-.582a12.9 12.9 0 0 0 1.052-5.139v-1.245a8.87 8.87 0 0 1 2.641-6.333 9.035 9.035 0 0 1 15.4 6.333v1.245a14.259 14.259 0 0 1-3.208 8.994 14.518 14.518 0 0 1-7.475 4.812c-.19.05-.378.1-.557.136s-.319.067-.45.092a14.52 14.52 0 0 1-2.697.252zM9.021 2.461a6.528 6.528 0 0 0-6.544 6.5v5.357a11.717 11.717 0 0 0 2.655 7.444 11.965 11.965 0 0 0 6.648 4.1c.1.024.219.047.375.077a12.088 12.088 0 0 0 2.229.206h6.648a15.843 15.843 0 0 1-1.225-1.166 19.77 19.77 0 0 1-.4-.436c-.084-.095-.17-.2-.282-.33a11.616 11.616 0 0 1-.396-.497l-.012-.016a15.465 15.465 0 0 1-3.16-9.38V8.957a6.43 6.43 0 0 0-1.916-4.594 6.527 6.527 0 0 0-4.62-1.902z" class="cls-1" data-name="Clip 5" transform="translate(0 .123)"/>
        </clipPath>
        <linearGradient id="linear-gradient-2" x1=".157" x2=".792" y1=".928" y2=".035" xlink:href="#linear-gradient"/>
        <clipPath id="clip-path-3">
            <path id="Clip_8" d="M4.8 9.35A4.746 4.746 0 0 1 0 4.676 4.747 4.747 0 0 1 4.8 0a4.747 4.747 0 0 1 4.8 4.676A4.746 4.746 0 0 1 4.8 9.35zm0-6.763a2.119 2.119 0 0 0-2.14 2.089A2.119 2.119 0 0 0 4.8 6.763a2.119 2.119 0 0 0 2.149-2.087A2.119 2.119 0 0 0 4.8 2.588z" class="cls-1" data-name="Clip 8" transform="translate(.063 .129)"/>
        </clipPath>
        <linearGradient id="linear-gradient-3" x1="-.406" x2=".301" y1="1.405" y2=".699" xlink:href="#linear-gradient"/>
    </defs>
    <g id="Group" transform="translate(0 -.008)">
        <g id="logo">
            <g id="Group_3" data-name="Group 3" transform="translate(4.86)">
                <path id="Clip_2-2" d="M4.8 9.608A4.8 4.8 0 1 1 9.609 4.8 4.81 4.81 0 0 1 4.8 9.608zm0-6.951A2.146 2.146 0 1 0 6.951 4.8 2.148 2.148 0 0 0 4.8 2.658z" class="cls-1" data-name="Clip 2" transform="translate(.006 .008)"/>
                <g id="Group_3-2" class="cls-2" data-name="Group 3">
                    <path id="Fill_1" d="M4.8 9.608A4.8 4.8 0 1 1 9.609 4.8 4.81 4.81 0 0 1 4.8 9.608zm0-6.951A2.146 2.146 0 1 0 6.951 4.8 2.148 2.148 0 0 0 4.8 2.658z" class="cls-3" data-name="Fill 1" transform="translate(.006 .008)"/>
                </g>
            </g>
            <g id="Group_6" data-name="Group 6" transform="translate(0 11.339)">
                <path id="Clip_5-2" d="M26.084 28.6h-11.7a14.5 14.5 0 0 1-2.695-.251 14.804 14.804 0 0 1-.448-.092 14.456 14.456 0 0 1-8.034-4.948A14.254 14.254 0 0 1 0 14.314V8.957a9.034 9.034 0 0 1 15.4-6.333 8.87 8.87 0 0 1 2.641 6.333v5.357a13.226 13.226 0 0 0 .3 2.784 12.984 12.984 0 0 0 .874 2.624 10.479 10.479 0 0 0 .715 1.429 9.987 9.987 0 0 0 2.211 2.659 13.1 13.1 0 0 0 3.383 2.328h.565c.283 0 .574-.011.864-.031a11.934 11.934 0 0 0 1.368-.176c.144-.027.267-.052.376-.077a11.958 11.958 0 0 0 6.645-4.1 11.71 11.71 0 0 0 2.654-7.444v-1.241a6.553 6.553 0 0 0-11.174-4.594 6.432 6.432 0 0 0-1.915 4.594v1.245a15.442 15.442 0 0 1-.837 5.031 15.168 15.168 0 0 1-1.091 2.455 11.112 11.112 0 0 1-1.279-1.765c-.106-.179-.212-.37-.322-.582a12.9 12.9 0 0 0 1.052-5.139v-1.245a8.87 8.87 0 0 1 2.641-6.333 9.035 9.035 0 0 1 15.4 6.333v1.245a14.259 14.259 0 0 1-3.208 8.994 14.518 14.518 0 0 1-7.475 4.812c-.19.05-.378.1-.557.136s-.319.067-.45.092a14.52 14.52 0 0 1-2.697.252zM9.021 2.461a6.528 6.528 0 0 0-6.544 6.5v5.357a11.717 11.717 0 0 0 2.655 7.444 11.965 11.965 0 0 0 6.648 4.1c.1.024.219.047.375.077a12.088 12.088 0 0 0 2.229.206h6.648a15.843 15.843 0 0 1-1.225-1.166 19.77 19.77 0 0 1-.4-.436c-.084-.095-.17-.2-.282-.33a11.616 11.616 0 0 1-.396-.497l-.012-.016a15.465 15.465 0 0 1-3.16-9.38V8.957a6.43 6.43 0 0 0-1.916-4.594 6.527 6.527 0 0 0-4.62-1.902z" class="cls-1" data-name="Clip 5" transform="translate(0 .123)"/>
                <g id="Group_6-2" class="cls-4" data-name="Group 6">
                    <path id="Fill_4" d="M26.084 28.6h-11.7a14.5 14.5 0 0 1-2.695-.251 14.804 14.804 0 0 1-.448-.092 14.456 14.456 0 0 1-8.034-4.948A14.254 14.254 0 0 1 0 14.314V8.957a9.034 9.034 0 0 1 15.4-6.333 8.87 8.87 0 0 1 2.641 6.333v5.357a13.226 13.226 0 0 0 .3 2.784 12.984 12.984 0 0 0 .874 2.624 10.479 10.479 0 0 0 .715 1.429 9.987 9.987 0 0 0 2.211 2.659 13.1 13.1 0 0 0 3.383 2.328h.565c.283 0 .574-.011.864-.031a11.934 11.934 0 0 0 1.368-.176c.144-.027.267-.052.376-.077a11.958 11.958 0 0 0 6.645-4.1 11.71 11.71 0 0 0 2.654-7.444v-1.241a6.553 6.553 0 0 0-11.174-4.594 6.432 6.432 0 0 0-1.915 4.594v1.245a15.442 15.442 0 0 1-.837 5.031 15.168 15.168 0 0 1-1.091 2.455 11.112 11.112 0 0 1-1.279-1.765c-.106-.179-.212-.37-.322-.582a12.9 12.9 0 0 0 1.052-5.139v-1.245a8.87 8.87 0 0 1 2.641-6.333 9.035 9.035 0 0 1 15.4 6.333v1.245a14.259 14.259 0 0 1-3.208 8.994 14.518 14.518 0 0 1-7.475 4.812c-.19.05-.378.1-.557.136s-.319.067-.45.092a14.52 14.52 0 0 1-2.697.252zM9.021 2.461a6.528 6.528 0 0 0-6.544 6.5v5.357a11.717 11.717 0 0 0 2.655 7.444 11.965 11.965 0 0 0 6.648 4.1c.1.024.219.047.375.077a12.088 12.088 0 0 0 2.229.206h6.648a15.843 15.843 0 0 1-1.225-1.166 19.77 19.77 0 0 1-.4-.436c-.084-.095-.17-.2-.282-.33a11.616 11.616 0 0 1-.396-.497l-.012-.016a15.465 15.465 0 0 1-3.16-9.38V8.957a6.43 6.43 0 0 0-1.916-4.594 6.527 6.527 0 0 0-4.62-1.902z" class="cls-5" data-name="Fill 4" transform="translate(0 .123)"/>
                </g>
            </g>
            <g id="Group_9" data-name="Group 9" transform="translate(27.537 3.24)">
                <path id="Clip_8-2" d="M4.8 9.35A4.746 4.746 0 0 1 0 4.676 4.747 4.747 0 0 1 4.8 0a4.747 4.747 0 0 1 4.8 4.676A4.746 4.746 0 0 1 4.8 9.35zm0-6.763a2.119 2.119 0 0 0-2.14 2.089A2.119 2.119 0 0 0 4.8 6.763a2.119 2.119 0 0 0 2.149-2.087A2.119 2.119 0 0 0 4.8 2.588z" class="cls-1" data-name="Clip 8" transform="translate(.063 .129)"/>
                <g id="Group_9-2" class="cls-6" data-name="Group 9">
                    <path id="Fill_7" d="M4.8 9.35A4.746 4.746 0 0 1 0 4.676 4.747 4.747 0 0 1 4.8 0a4.747 4.747 0 0 1 4.8 4.676A4.746 4.746 0 0 1 4.8 9.35zm0-6.763a2.119 2.119 0 0 0-2.14 2.089A2.119 2.119 0 0 0 4.8 6.763a2.119 2.119 0 0 0 2.149-2.087A2.119 2.119 0 0 0 4.8 2.588z" class="cls-7" data-name="Fill 7" transform="translate(.063 .129)"/>
                </g>
            </g>
        </g>
        <path id="Tarbeeta" d="M15.051 6.7a.792.792 0 0 1 .783.783v1.044a.792.792 0 0 1-.783.783H9.628v16.907a.792.792 0 0 1-.783.783H7.656a.792.792 0 0 1-.783-.783V9.31H1.45a.753.753 0 0 1-.55-.232.753.753 0 0 1-.232-.551V7.483A.753.753 0 0 1 .9 6.932a.753.753 0 0 1 .55-.232zm-.029 16.5a4.251 4.251 0 0 1 .464-2.03 4.45 4.45 0 0 1 1.276-1.479 6.915 6.915 0 0 1 1.9-.986 14.109 14.109 0 0 1 2.306-.58l4.089-.667v-.377a2.612 2.612 0 0 0-.972-2.219 3.882 3.882 0 0 0-2.421-.74 3.32 3.32 0 0 0-1.928.464 4.834 4.834 0 0 0-1.117 1.1.954.954 0 0 1-.377.319 1.428 1.428 0 0 1-.551.087h-.87a.8.8 0 0 1-.566-.232.645.645 0 0 1-.217-.551 2.8 2.8 0 0 1 .507-1.305 4.47 4.47 0 0 1 1.218-1.189 7.158 7.158 0 0 1 1.769-.855 6.7 6.7 0 0 1 2.132-.333 7.524 7.524 0 0 1 2.421.377A5.348 5.348 0 0 1 26 13.109a5 5 0 0 1 1.247 1.8 6.334 6.334 0 0 1 .449 2.465v8.845a.792.792 0 0 1-.783.783h-1.074a.792.792 0 0 1-.783-.783v-1.191a2.653 2.653 0 0 1-.812.972 5.48 5.48 0 0 1-1.261.71 7.662 7.662 0 0 1-1.479.435 7.768 7.768 0 0 1-1.435.145 6.434 6.434 0 0 1-2.074-.319 5.015 5.015 0 0 1-1.595-.856 3.764 3.764 0 0 1-1.015-1.29 3.7 3.7 0 0 1-.363-1.625zm5.336 1.6a5.522 5.522 0 0 0 1.914-.319 4.5 4.5 0 0 0 1.493-.884 3.818 3.818 0 0 0 .957-1.349 4.4 4.4 0 0 0 .333-1.74v-.725l-3.422.551a8.248 8.248 0 0 0-2.9.928 1.888 1.888 0 0 0-1.073 1.653 1.531 1.531 0 0 0 .145.638 1.893 1.893 0 0 0 .464.609 2.339 2.339 0 0 0 .826.464 3.932 3.932 0 0 0 1.263.174zm19.227-12.88a.792.792 0 0 1 .783.783v.928a.792.792 0 0 1-.783.783H37.9q-3.335 0-3.335 3.335v8.468a.792.792 0 0 1-.783.783h-1.07a.792.792 0 0 1-.783-.783V12.7a.792.792 0 0 1 .783-.783h1.073a.792.792 0 0 1 .783.783v.9a3.632 3.632 0 0 1 1.392-1.276 4.746 4.746 0 0 1 2.117-.406zm10.44-.29a6.661 6.661 0 0 1 2.537.478 6.021 6.021 0 0 1 2.044 1.363A6.6 6.6 0 0 1 56 15.632a8.808 8.808 0 0 1 .609 2.871q.029.435.029.943t-.029.943a8.808 8.808 0 0 1-.609 2.87 6.776 6.776 0 0 1-1.392 2.175 5.921 5.921 0 0 1-2.044 1.378 6.661 6.661 0 0 1-2.537.479 5.857 5.857 0 0 1-2.842-.595 5.068 5.068 0 0 1-1.653-1.377v.9a.792.792 0 0 1-.783.783h-1.075a.792.792 0 0 1-.783-.783V7.193a.792.792 0 0 1 .783-.783h1.073a.792.792 0 0 1 .783.783V13.6a5.431 5.431 0 0 1 1.624-1.348 5.7 5.7 0 0 1 2.871-.622zm-4.5 9.077a4.485 4.485 0 0 0 1.276 2.987 4.02 4.02 0 0 0 2.929 1.1 3.817 3.817 0 0 0 3-1.218 5.369 5.369 0 0 0 1.232-3.306q.029-.812 0-1.624a5.369 5.369 0 0 0-1.232-3.306 3.817 3.817 0 0 0-3-1.218 3.93 3.93 0 0 0-2.929 1.117 4.954 4.954 0 0 0-1.276 3.175 9.034 9.034 0 0 0-.058 1.146 9.034 9.034 0 0 0 .063 1.147zm14.007-2.7a7.645 7.645 0 0 1 .638-2.494 7.061 7.061 0 0 1 1.363-2.03 5.992 5.992 0 0 1 2.015-1.363 6.719 6.719 0 0 1 2.625-.493 7.3 7.3 0 0 1 2.8.507 5.77 5.77 0 0 1 2.1 1.464 6.524 6.524 0 0 1 1.334 2.32 9.409 9.409 0 0 1 .464 3.045v.783a.792.792 0 0 1-.783.783h-9.97v.174a4.1 4.1 0 0 0 1.2 3.03 4.048 4.048 0 0 0 2.86 1.067 4.338 4.338 0 0 0 3.683-1.45 1.686 1.686 0 0 1 .406-.319 1.212 1.212 0 0 1 .522-.087h.87a.853.853 0 0 1 .58.232.564.564 0 0 1 .2.551 3.083 3.083 0 0 1-.493 1.146 4.328 4.328 0 0 1-1.174 1.16 7.048 7.048 0 0 1-1.914.9 8.916 8.916 0 0 1-2.682.363 6.447 6.447 0 0 1-2.61-.508 6.268 6.268 0 0 1-2.015-1.392 6.945 6.945 0 0 1-1.376-2.096 8.232 8.232 0 0 1-.638-2.625 12.309 12.309 0 0 1 0-2.665zm2.581.087h8.149v-.084a3.713 3.713 0 0 0-1.117-2.828 4.143 4.143 0 0 0-2.972-1.059 4.372 4.372 0 0 0-1.566.276 3.917 3.917 0 0 0-1.276.783 3.652 3.652 0 0 0-.87 1.233 4.277 4.277 0 0 0-.348 1.595zm13.577-.084a7.645 7.645 0 0 1 .638-2.494 7.061 7.061 0 0 1 1.363-2.03 5.992 5.992 0 0 1 2.015-1.363 6.719 6.719 0 0 1 2.625-.493 7.3 7.3 0 0 1 2.8.507 5.77 5.77 0 0 1 2.1 1.464 6.524 6.524 0 0 1 1.334 2.32 9.409 9.409 0 0 1 .464 3.045v.783a.792.792 0 0 1-.783.783h-9.975v.174a4.1 4.1 0 0 0 1.2 3.03 4.048 4.048 0 0 0 2.86 1.064 4.338 4.338 0 0 0 3.683-1.45 1.686 1.686 0 0 1 .406-.319 1.212 1.212 0 0 1 .522-.087h.87a.853.853 0 0 1 .58.232.564.564 0 0 1 .2.551 3.083 3.083 0 0 1-.493 1.146 4.328 4.328 0 0 1-1.174 1.16 7.048 7.048 0 0 1-1.914.9 8.916 8.916 0 0 1-2.682.363 6.447 6.447 0 0 1-2.61-.508 6.268 6.268 0 0 1-2.016-1.392 6.945 6.945 0 0 1-1.375-2.096 8.233 8.233 0 0 1-.638-2.625 12.309 12.309 0 0 1 0-2.665zm2.581.087h8.149v-.087a3.713 3.713 0 0 0-1.12-2.828 4.143 4.143 0 0 0-2.972-1.059 4.372 4.372 0 0 0-1.566.276 3.917 3.917 0 0 0-1.276.783 3.652 3.652 0 0 0-.87 1.233 4.277 4.277 0 0 0-.348 1.595zm18.1 3.828a4.958 4.958 0 0 0 .1 1.03 2.075 2.075 0 0 0 .363.826 1.654 1.654 0 0 0 .74.536 3.406 3.406 0 0 0 1.232.189h1.537a.792.792 0 0 1 .783.783v.928a.792.792 0 0 1-.783.783h-1.83a4.6 4.6 0 0 1-3.654-1.305 5.594 5.594 0 0 1-1.131-3.77v-7.511h-2.146a.792.792 0 0 1-.783-.783V12.7a.792.792 0 0 1 .783-.783h2.146V7.193a.792.792 0 0 1 .783-.783h1.073a.792.792 0 0 1 .783.783v4.727h3.683a.792.792 0 0 1 .783.783v.928a.792.792 0 0 1-.783.783h-3.683zm6.579 1.275a4.251 4.251 0 0 1 .464-2.03 4.45 4.45 0 0 1 1.276-1.479 6.915 6.915 0 0 1 1.9-.986 14.109 14.109 0 0 1 2.305-.58l4.089-.667v-.377a2.612 2.612 0 0 0-.972-2.219 3.882 3.882 0 0 0-2.422-.74 3.32 3.32 0 0 0-1.928.464 4.834 4.834 0 0 0-1.117 1.1.954.954 0 0 1-.377.319 1.428 1.428 0 0 1-.551.087h-.87a.8.8 0 0 1-.565-.232.645.645 0 0 1-.218-.551 2.8 2.8 0 0 1 .507-1.305 4.47 4.47 0 0 1 1.218-1.189 7.158 7.158 0 0 1 1.769-.855 6.7 6.7 0 0 1 2.131-.333 7.524 7.524 0 0 1 2.422.377 5.348 5.348 0 0 1 1.914 1.1 5 5 0 0 1 1.247 1.8 6.334 6.334 0 0 1 .45 2.465v8.845a.792.792 0 0 1-.783.783h-1.073a.792.792 0 0 1-.783-.783v-1.186a2.653 2.653 0 0 1-.812.972 5.48 5.48 0 0 1-1.261.71 7.663 7.663 0 0 1-1.479.435 7.768 7.768 0 0 1-1.431.145 6.434 6.434 0 0 1-2.074-.319 5.015 5.015 0 0 1-1.6-.856 3.764 3.764 0 0 1-1.015-1.29 3.7 3.7 0 0 1-.361-1.625zm5.336 1.595a5.522 5.522 0 0 0 1.914-.319 4.5 4.5 0 0 0 1.493-.884 3.818 3.818 0 0 0 .957-1.349 4.4 4.4 0 0 0 .334-1.74v-.725l-3.422.551a8.248 8.248 0 0 0-2.9.928 1.888 1.888 0 0 0-1.073 1.653 1.53 1.53 0 0 0 .145.638 1.893 1.893 0 0 0 .464.609 2.339 2.339 0 0 0 .826.464 3.932 3.932 0 0 0 1.262.179z" class="cls-8" transform="translate(47 6)"/>
    </g>
</svg>
