<?xml version="1.0" encoding="UTF-8"?>
<svg width="96px" height="96px" viewBox="0 0 96 96" version="1.1" xmlns="http://www.w3.org/2000/svg" xmlns:xlink="http://www.w3.org/1999/xlink">
    <!-- Generator: Sketch 48.2 (47327) - http://www.bohemiancoding.com/sketch -->
    <title>noun_not found_2157361</title>
    <desc>Created with Sketch.</desc>
    <defs></defs>
    <g id="Artboard" stroke="none" stroke-width="1" fill="none" fill-rule="evenodd" transform="translate(-303.000000, -88.000000)">
        <g id="noun_not-found_2157361" transform="translate(303.000000, 88.000000)" fill="#5A9AE5" fill-rule="nonzero">
            <g id="Group">
                <path d="M90.2,0.5 L5.8,0.5 C3.1,0.5 0.9,2.7 0.9,5.4 L0.9,70 C0.9,72.7 3.1,74.9 5.8,74.9 L38.3,74.9 L38.3,83.8 L34,83.8 C28.9,83.8 24.8,87.9 24.8,93 C24.8,94.3 25.9,95.4 27.2,95.4 L68.6,95.4 C70,95.4 71.1,94.3 71.1,92.9 C71.1,87.8 67,83.7 61.9,83.7 L57.7,83.7 L57.7,74.8 L90.2,74.8 C92.9,74.8 95.1,72.6 95.1,69.9 L95.1,5.4 C95.1,2.7 92.9,0.5 90.2,0.5 Z M48,69.7 C46.1,69.7 44.6,68.2 44.6,66.3 C44.6,64.4 46.1,62.9 48,62.9 C49.9,62.9 51.4,64.4 51.4,66.3 C51.4,68.2 49.9,69.7 48,69.7 Z M85.2,57.8 L10.8,57.8 L10.8,10.4 L85.2,10.4 L85.2,57.8 Z" id="Shape"></path>
                <path d="M30.3,32.4 C30.8,32.9 31.4,33.1 32,33.1 C32.6,33.1 33.3,32.9 33.7,32.4 L36.6,29.5 L39.5,32.4 C40,32.9 40.6,33.1 41.2,33.1 C41.8,33.1 42.5,32.9 42.9,32.4 C43.9,31.4 43.9,29.9 42.9,28.9 L40.2,26 L43.1,23.1 C44.1,22.1 44.1,20.6 43.1,19.6 C42.1,18.6 40.6,18.6 39.6,19.6 L36.7,22.5 L33.8,19.6 C32.8,18.6 31.3,18.6 30.3,19.6 C29.3,20.6 29.3,22.1 30.3,23.1 L33.2,26 L30.3,28.9 C29.3,29.9 29.3,31.4 30.3,32.4 Z" id="Shape"></path>
                <path d="M52.9,32.4 C53.4,32.9 54,33.1 54.6,33.1 C55.2,33.1 55.9,32.9 56.3,32.4 L59.2,29.5 L62.1,32.4 C62.6,32.9 63.2,33.1 63.8,33.1 C64.4,33.1 65.1,32.9 65.5,32.4 C66.5,31.4 66.5,29.9 65.5,28.9 L62.8,26 L65.7,23.1 C66.7,22.1 66.7,20.6 65.7,19.6 C64.7,18.6 63.2,18.6 62.2,19.6 L59.3,22.5 L56.4,19.6 C55.4,18.6 53.9,18.6 52.9,19.6 C51.9,20.6 51.9,22.1 52.9,23.1 L55.8,26 L52.9,28.9 C51.9,29.9 51.9,31.4 52.9,32.4 Z" id="Shape"></path>
                <path d="M33.7,46.5 C33,47.7 33.4,49.3 34.6,50 C35,50.2 35.4,50.3 35.9,50.3 C36.8,50.3 37.7,49.8 38.1,49 C40.1,45.5 43.9,43.3 48,43.3 C52.1,43.3 55.8,45.5 57.9,49 C58.6,50.2 60.2,50.7 61.4,49.9 C62.6,49.2 63.1,47.6 62.3,46.4 C59.4,41.3 53.9,38.1 48,38.1 C42.1,38.1 36.6,41.3 33.7,46.5 Z" id="Shape"></path>
            </g>
        </g>
    </g>
</svg>