<svg xmlns="http://www.w3.org/2000/svg" width="16" height="20" viewBox="0 0 16 20">
    <g fill="#444" fill-rule="evenodd">
        <path d="M15.158 15.417a.42.42 0 0 1-.421.416H1.263a.42.42 0 0 1-.42-.416v-1.775c0-.23.192-.365.357-.412 2.186-.62 2.595-3.667 3.009-8.613C4.409 2.212 5.792.833 8 .833s3.59 1.38 3.791 3.784c.414 4.946.823 7.994 3.009 8.613.165.047.358.182.358.412v1.775zm-.126-2.988c-1.661-.47-2.03-3.426-2.402-7.88C12.396 1.743 10.62 0 8 0S3.604 1.743 3.37 4.55c-.372 4.453-.74 7.41-2.402 7.88-.579.163-.968.65-.968 1.212v1.775c0 .689.567 1.25 1.263 1.25h13.474c.696 0 1.263-.561 1.263-1.25v-1.775c0-.561-.39-1.049-.968-1.213zM9.684 17.5a.419.419 0 0 0-.42.417c0 .689-.568 1.25-1.264 1.25-.696 0-1.263-.561-1.263-1.25a.419.419 0 0 0-.421-.417.419.419 0 0 0-.421.417C5.895 19.065 6.839 20 8 20s2.105-.935 2.105-2.083a.419.419 0 0 0-.42-.417"/>
    </g>
</svg>
