<svg xmlns="http://www.w3.org/2000/svg" width="16" height="22" viewBox="0 0 16 22">
    <g fill="#F3444A" fill-rule="evenodd">
        <path d="M15.111 20c0 .245-.2.444-.444.444H1.333A.445.445 0 0 1 .89 20V5.333H4c.735 0 1.333-.598 1.333-1.333V.889h9.334c.244 0 .444.199.444.444V20zM4.444 1.517V4c0 .245-.2.444-.444.444H1.517l2.927-2.927zM14.667 0H4.889c-.019 0-.037.009-.056.012-.02.002-.037.006-.057.01a.45.45 0 0 0-.202.108L.13 4.574a.453.453 0 0 0-.118.257C.009 4.851 0 4.87 0 4.89V20c0 .735.598 1.333 1.333 1.333h13.334c.735 0 1.333-.598 1.333-1.333V1.333C16 .598 15.402 0 14.667 0z"/>
        <path d="M12 10.667H4.889a.445.445 0 0 0 0 .889H12a.445.445 0 0 0 0-.89M12 15.111H4.889a.445.445 0 0 0 0 .889H12a.445.445 0 0 0 0-.889"/>
    </g>
</svg>
