<svg width="25" height="25" version="1.1" xmlns="http://www.w3.org/2000/svg" xmlns:xlink="http://www.w3.org/1999/xlink"><rect id="backgroundrect" width="100%" height="100%" x="0" y="0" fill="none" stroke="none"/>
    <!-- Generator: sketchtool 52.6 (67491) - http://www.bohemiancoding.com/sketch -->
    <title>FE00543C-BECC-450E-A638-AD06E951BBF2</title>
    <desc>Created with sketchtool.</desc>
    <defs>
        <path d="M2.96983333,0.00516666667 C1.33416667,0.00516666667 0.00383333333,1.33533333 0.00383333333,2.971 C0.00383333333,4.60666667 1.33416667,5.937 2.96983333,5.937 C4.6055,5.937 5.93583333,4.60666667 5.93583333,2.971 C5.93583333,1.33533333 4.6055,0.00516666667 2.96983333,0.00516666667 Z M1.646,2.971 C1.646,2.24016667 2.24,1.64616667 2.96983333,1.64616667 C3.69983333,1.64616667 4.29483333,2.24016667 4.29483333,2.971 C4.29483333,3.701 3.69983333,4.295 2.96983333,4.295 C2.24,4.295 1.646,3.701 1.646,2.971 Z" id="path-1"/>
        <linearGradient x1="-8.82474376%" y1="108.82726%" x2="61.8530319%" y2="38.1474982%" id="linearGradient-3">
            <stop stop-color="#4DC3D1" offset="0%"/>
            <stop stop-color="#6295CD" offset="100%"/>
        </linearGradient>
        <path d="M0,5.60572563 L0,8.91269825 C0,10.9291374 0.702795031,12.9013254 1.9802795,14.4647673 C3.23913043,16.0055439 5,17.0903938 6.93990683,17.5193381 C7.0310559,17.5395364 7.12391304,17.5588096 7.21661491,17.5765409 C7.76164596,17.6793827 8.32111801,17.7313433 8.88059006,17.7313433 L16.1029503,17.7313433 C16.661646,17.7313433 17.2209627,17.6793827 17.7659938,17.5765409 L17.7669255,17.5765409 C17.8588509,17.5588096 17.9524845,17.5395364 18.0444099,17.5193381 C18.1593168,17.4942058 18.2746894,17.4656815 18.3888199,17.4356153 C20.1909938,16.9590276 21.8194099,15.9133409 23.0031056,14.4647673 C24.2796584,12.9013254 24.9835404,10.9291374 24.9835404,8.91269825 L24.9835404,8.14439143 C24.9835404,5.0955255 22.4850932,2.61483348 19.4147516,2.61483348 C17.9271739,2.61483348 16.5282609,3.18948319 15.476087,4.23424478 C14.4248447,5.27900636 13.8459627,6.66729345 13.8459627,8.14439143 L13.8459627,8.91269825 C13.8459627,10.0209843 13.6240683,11.0925742 13.1962733,12.0853752 C13.252795,12.1942302 13.3186335,12.3149576 13.3954969,12.4447818 C13.5919255,12.7765892 13.8543478,13.1628241 14.1860248,13.5322528 C14.4543478,13.048881 14.6796584,12.5428439 14.8593168,12.0183045 C15.2018634,11.0213404 15.3757764,9.97657884 15.3757764,8.91269825 L15.3757764,8.14439143 C15.3757764,7.07357249 15.7958075,6.06566126 16.5585404,5.30830162 C17.3214286,4.5507878 18.3357143,4.13371577 19.4147516,4.13371577 C21.6423913,4.13371577 23.4537267,5.93321583 23.4537267,8.14439143 L23.4537267,8.91269825 C23.4537267,9.76549877 23.307764,10.5999512 23.0192547,11.3932361 C22.7399068,12.1598469 22.3349379,12.871105 21.8152174,13.5080457 C20.772205,14.7839315 19.3159938,15.6820626 17.7128882,16.0365352 C17.6428571,16.0525705 17.5669255,16.0682975 17.4809006,16.0843328 C17.2032609,16.1361391 16.9214286,16.1731437 16.6363354,16.1930336 C16.4591615,16.2056768 16.2810559,16.212461 16.1029503,16.212461 L15.7537267,16.212461 C15.298913,15.9945968 14.8686335,15.7374152 14.4661491,15.4432291 C14.1860248,15.238779 13.9184783,15.0152099 13.665528,14.7748345 C13.0493789,14.2686432 12.5979814,13.6369448 12.3003106,13.1333747 C12.0024845,12.6290336 11.8588509,12.2512789 11.8588509,12.2512789 C11.6218944,11.7318276 11.4413043,11.1897111 11.3197205,10.6310967 C11.1990683,10.0720197 11.1374224,9.49737002 11.1374224,8.91269825 L11.1374224,5.60572563 C11.1374224,4.12862764 10.557764,2.74049474 9.50652174,1.69573316 C8.45434783,0.65189669 7.05636646,0.0761676833 5.56863354,0.0761676833 C2.49751553,0.0761676833 0,2.55701389 0,5.60572563 M7.50434783,16.0849495 C7.41413043,16.0675265 7.33804348,16.0525705 7.27236025,16.0373062 C5.66754658,15.6820626 4.21024845,14.7831605 3.16832298,13.5080457 C2.64767081,12.871105 2.24270186,12.1598469 1.96428571,11.3932361 C1.67562112,10.5999512 1.52888199,9.76549877 1.52888199,8.91269825 L1.52888199,5.60572563 C1.52888199,3.39470422 3.34130435,1.59520415 5.56863354,1.59520415 C6.64704969,1.59520415 7.6613354,2.01243037 8.425,2.76979001 C9.18773292,3.52714964 9.60776398,4.53521506 9.60776398,5.60572563 L9.60776398,8.91269825 C9.60776398,9.97657884 9.78167702,11.0222655 10.1242236,12.0183045 C10.4548137,12.9825812 10.9375776,13.8856462 11.5585404,14.7034466 C11.5982919,14.7554071 11.6378882,14.8073677 11.6774845,14.8560903 C11.7204969,14.9112888 11.7652174,14.9658705 11.8099379,15.0201438 C11.867236,15.0889106 11.9246894,15.1565981 11.9838509,15.223823 C12.0631988,15.3151008 12.1450311,15.4048369 12.2274845,15.4919517 L12.2285714,15.4927226 C12.467236,15.7457412 12.7194099,15.9862707 12.9846273,16.212461 L8.88059006,16.212461 C8.41645963,16.212461 7.95326087,16.1695974 7.50434783,16.0849495" id="path-4"/>
        <linearGradient x1="15.6816862%" y1="92.7735663%" x2="79.2007274%" y2="3.52206321%" id="linearGradient-6">
            <stop stop-color="#4DC3D1" offset="0%"/>
            <stop stop-color="#6295CD" offset="100%"/>
        </linearGradient>
        <path d="M0.0391666667,2.96610811 C0.0391666667,4.55659459 1.36966667,5.85178378 3.00516667,5.85178378 C4.64066667,5.85178378 5.971,4.55659459 5.971,2.96610811 C5.971,1.37383784 4.64066667,0.0796216216 3.00516667,0.0796216216 C1.36966667,0.0796216216 0.0391666667,1.37383784 0.0391666667,2.96610811 M1.681,2.96610811 C1.681,2.25502703 2.27516667,1.67691892 3.00516667,1.67691892 C3.735,1.67691892 4.32916667,2.25502703 4.32916667,2.96610811 C4.32916667,3.67621622 3.735,4.25432432 3.00516667,4.25432432 C2.27516667,4.25432432 1.681,3.67621622 1.681,2.96610811" id="path-7"/>
        <linearGradient x1="-40.5605057%" y1="140.548765%" x2="30.1228409%" y2="69.8733614%" id="linearGradient-9">
            <stop stop-color="#4DC3D1" offset="0%"/>
            <stop stop-color="#6295CD" offset="100%"/>
        </linearGradient>
    </defs>
    
<g class="currentLayer" style=""><title>Layer 1</title><g id="pages" stroke="none" stroke-width="1" fill="#919191" fill-rule="evenodd" class="selected" fill-opacity="1">
        <g id="cart-1.4" transform="" fill="#919191" fill-opacity="1">
            <g id="header" transform="" fill="#919191" fill-opacity="1">
                <g id="logo" transform="" fill="#919191" fill-opacity="1">
                    <g id="Group-3" transform="" fill="#919191" fill-opacity="1">
                        <mask id="mask-2" fill="white">
                            <use xlink:href="#path-1" id="svg_1"/>
                        </mask>
                        <g id="Clip-2" fill="#919191" fill-opacity="1"/>
                        <path d="M2.96983333,0.00516666667 C1.33416667,0.00516666667 0.00383333333,1.33533333 0.00383333333,2.971 C0.00383333333,4.60666667 1.33416667,5.937 2.96983333,5.937 C4.6055,5.937 5.93583333,4.60666667 5.93583333,2.971 C5.93583333,1.33533333 4.6055,0.00516666667 2.96983333,0.00516666667 Z M1.646,2.971 C1.646,2.24016667 2.24,1.64616667 2.96983333,1.64616667 C3.69983333,1.64616667 4.29483333,2.24016667 4.29483333,2.971 C4.29483333,3.701 3.69983333,4.295 2.96983333,4.295 C2.24,4.295 1.646,3.701 1.646,2.971 Z" id="Fill-1" fill="#919191" mask="url(#mask-2)" transform="translate(3)" fill-opacity="1"/>
                    </g>
                    <g id="Group-6" transform="" fill="#919191" fill-opacity="1">
                        <mask id="mask-5" fill="white">
                            <use xlink:href="#path-4" id="svg_2"/>
                        </mask>
                        <g id="Clip-5" fill="#919191" fill-opacity="1"/>
                        <path d="M0,5.60572563 L0,8.91269825 C0,10.9291374 0.702795031,12.9013254 1.9802795,14.4647673 C3.23913043,16.0055439 5,17.0903938 6.93990683,17.5193381 C7.0310559,17.5395364 7.12391304,17.5588096 7.21661491,17.5765409 C7.76164596,17.6793827 8.32111801,17.7313433 8.88059006,17.7313433 L16.1029503,17.7313433 C16.661646,17.7313433 17.2209627,17.6793827 17.7659938,17.5765409 L17.7669255,17.5765409 C17.8588509,17.5588096 17.9524845,17.5395364 18.0444099,17.5193381 C18.1593168,17.4942058 18.2746894,17.4656815 18.3888199,17.4356153 C20.1909938,16.9590276 21.8194099,15.9133409 23.0031056,14.4647673 C24.2796584,12.9013254 24.9835404,10.9291374 24.9835404,8.91269825 L24.9835404,8.14439143 C24.9835404,5.0955255 22.4850932,2.61483348 19.4147516,2.61483348 C17.9271739,2.61483348 16.5282609,3.18948319 15.476087,4.23424478 C14.4248447,5.27900636 13.8459627,6.66729345 13.8459627,8.14439143 L13.8459627,8.91269825 C13.8459627,10.0209843 13.6240683,11.0925742 13.1962733,12.0853752 C13.252795,12.1942302 13.3186335,12.3149576 13.3954969,12.4447818 C13.5919255,12.7765892 13.8543478,13.1628241 14.1860248,13.5322528 C14.4543478,13.048881 14.6796584,12.5428439 14.8593168,12.0183045 C15.2018634,11.0213404 15.3757764,9.97657884 15.3757764,8.91269825 L15.3757764,8.14439143 C15.3757764,7.07357249 15.7958075,6.06566126 16.5585404,5.30830162 C17.3214286,4.5507878 18.3357143,4.13371577 19.4147516,4.13371577 C21.6423913,4.13371577 23.4537267,5.93321583 23.4537267,8.14439143 L23.4537267,8.91269825 C23.4537267,9.76549877 23.307764,10.5999512 23.0192547,11.3932361 C22.7399068,12.1598469 22.3349379,12.871105 21.8152174,13.5080457 C20.772205,14.7839315 19.3159938,15.6820626 17.7128882,16.0365352 C17.6428571,16.0525705 17.5669255,16.0682975 17.4809006,16.0843328 C17.2032609,16.1361391 16.9214286,16.1731437 16.6363354,16.1930336 C16.4591615,16.2056768 16.2810559,16.212461 16.1029503,16.212461 L15.7537267,16.212461 C15.298913,15.9945968 14.8686335,15.7374152 14.4661491,15.4432291 C14.1860248,15.238779 13.9184783,15.0152099 13.665528,14.7748345 C13.0493789,14.2686432 12.5979814,13.6369448 12.3003106,13.1333747 C12.0024845,12.6290336 11.8588509,12.2512789 11.8588509,12.2512789 C11.6218944,11.7318276 11.4413043,11.1897111 11.3197205,10.6310967 C11.1990683,10.0720197 11.1374224,9.49737002 11.1374224,8.91269825 L11.1374224,5.60572563 C11.1374224,4.12862764 10.557764,2.74049474 9.50652174,1.69573316 C8.45434783,0.65189669 7.05636646,0.0761676833 5.56863354,0.0761676833 C2.49751553,0.0761676833 0,2.55701389 0,5.60572563 M7.50434783,16.0849495 C7.41413043,16.0675265 7.33804348,16.0525705 7.27236025,16.0373062 C5.66754658,15.6820626 4.21024845,14.7831605 3.16832298,13.5080457 C2.64767081,12.871105 2.24270186,12.1598469 1.96428571,11.3932361 C1.67562112,10.5999512 1.52888199,9.76549877 1.52888199,8.91269825 L1.52888199,5.60572563 C1.52888199,3.39470422 3.34130435,1.59520415 5.56863354,1.59520415 C6.64704969,1.59520415 7.6613354,2.01243037 8.425,2.76979001 C9.18773292,3.52714964 9.60776398,4.53521506 9.60776398,5.60572563 L9.60776398,8.91269825 C9.60776398,9.97657884 9.78167702,11.0222655 10.1242236,12.0183045 C10.4548137,12.9825812 10.9375776,13.8856462 11.5585404,14.7034466 C11.5982919,14.7554071 11.6378882,14.8073677 11.6774845,14.8560903 C11.7204969,14.9112888 11.7652174,14.9658705 11.8099379,15.0201438 C11.867236,15.0889106 11.9246894,15.1565981 11.9838509,15.223823 C12.0631988,15.3151008 12.1450311,15.4048369 12.2274845,15.4919517 L12.2285714,15.4927226 C12.467236,15.7457412 12.7194099,15.9862707 12.9846273,16.212461 L8.88059006,16.212461 C8.41645963,16.212461 7.95326087,16.1695974 7.50434783,16.0849495" id="Fill-4" fill="#919191" mask="url(#mask-5)" transform="translate(0, 7)" fill-opacity="1"/>
                    </g>
                    <g id="Group-9" transform="" fill="#919191" fill-opacity="1">
                        <mask id="mask-8" fill="white">
                            <use xlink:href="#path-7" id="svg_3"/>
                        </mask>
                        <g id="Clip-8" fill="#919191" fill-opacity="1"/>
                        <path d="M0.0391666667,2.96610811 C0.0391666667,4.55659459 1.36966667,5.85178378 3.00516667,5.85178378 C4.64066667,5.85178378 5.971,4.55659459 5.971,2.96610811 C5.971,1.37383784 4.64066667,0.0796216216 3.00516667,0.0796216216 C1.36966667,0.0796216216 0.0391666667,1.37383784 0.0391666667,2.96610811 M1.681,2.96610811 C1.681,2.25502703 2.27516667,1.67691892 3.00516667,1.67691892 C3.735,1.67691892 4.32916667,2.25502703 4.32916667,2.96610811 C4.32916667,3.67621622 3.735,4.25432432 3.00516667,4.25432432 C2.27516667,4.25432432 1.681,3.67621622 1.681,2.96610811" id="Fill-7" fill="#919191" mask="url(#mask-8)" transform="translate(17, 2) translate(165, 27) translate(0, 40) translate(-165, -67)" fill-opacity="1"/>
                    </g>
                </g>
            </g>
        </g>
    </g></g></svg>