<svg xmlns="http://www.w3.org/2000/svg" xmlns:xlink="http://www.w3.org/1999/xlink" width="20" height="21" viewBox="0 0 20 21">
    <defs>
        <path id="a" d="M0 .001h19.997V20H0z"/>
    </defs>
    <g fill="none" fill-rule="evenodd">
        <g transform="translate(0 .833)">
            <mask id="b" fill="#fff">
                <use xlink:href="#a"/>
            </mask>
            <path fill="#F3444A" d="M8.807 19.015c.196.196.51.204.697.017l9.66-9.64V1.25c-.003-.27-.145-.411-.422-.415h-8.154L.97 10.514a.464.464 0 0 0-.136.334.51.51 0 0 0 .151.362l7.822 7.805zm.364.985c-.344 0-.69-.132-.953-.395L.396 11.799A1.339 1.339 0 0 1 0 10.848c0-.35.135-.677.38-.922L10.12.124A.415.415 0 0 1 10.415 0h8.333c.729.01 1.24.521 1.25 1.243v8.321c0 .111-.044.217-.123.295l-9.781 9.761c-.255.253-.588.38-.923.38z" mask="url(#b)"/>
        </g>
        <path fill="#F3444A" d="M8.776 15.357c-.717 0-1.49-.287-2.202-.996l-1.16-1.16a.417.417 0 0 1 .589-.589l1.16 1.16c1.072 1.066 2.176.857 2.85.299.871-.717 1.26-2.175.32-3.574-1.218-1.811-.68-3.727.48-4.682.986-.813 2.595-1.02 3.969.354l1.446 1.442a.417.417 0 0 1-.59.59l-1.445-1.443c-1.07-1.07-2.173-.857-2.85-.3-.871.717-1.26 2.175-.319 3.573 1.218 1.812.68 3.727-.48 4.684a2.795 2.795 0 0 1-1.768.642"/>
    </g>
</svg>
