<svg xmlns="http://www.w3.org/2000/svg" xmlns:xlink="http://www.w3.org/1999/xlink" width="21" height="20" viewBox="0 0 21 20">
    <defs>
        <path id="a" d="M0 0h20.965v19.792H0z"/>
    </defs>
    <g fill="none" fill-rule="evenodd">
        <mask id="b" fill="#fff">
            <use xlink:href="#a"/>
        </mask>
        <path fill="#F3444A" d="M20.492 9.025c.43-.412.58-1.016.396-1.579a1.548 1.548 0 0 0-1.262-1.048l-5.187-.742a.313.313 0 0 1-.236-.168L11.884.858A1.555 1.555 0 0 0 10.483 0c-.6 0-1.137.329-1.402.858l-2.32 4.63a.313.313 0 0 1-.235.168l-5.186.742A1.547 1.547 0 0 0 .078 7.446a1.513 1.513 0 0 0 .395 1.58l3.753 3.602c.074.071.108.173.09.273L3.43 17.99a1.52 1.52 0 0 0 .622 1.506 1.575 1.575 0 0 0 1.647.117l4.637-2.402a.32.32 0 0 1 .293 0l4.638 2.402a1.57 1.57 0 0 0 1.647-.118c.484-.346.722-.924.62-1.505L16.65 12.9a.301.301 0 0 1 .09-.273l3.752-3.603z" mask="url(#b)"/>
    </g>
</svg>
