<svg xmlns="http://www.w3.org/2000/svg" width="20" height="20" viewBox="0 0 20 20">
    <path fill="#F3444A" fill-rule="evenodd" d="M19.167 4.583a2.922 2.922 0 0 1-2.5 2.888V1.667h2.5v2.916zM10 13.333A5.84 5.84 0 0 1 4.167 7.5V.833h11.666V7.5A5.84 5.84 0 0 1 10 13.333zm1.707 5.834H8.293c1.029-.725 1.48-1.684 1.707-2.63.227.946.678 1.905 1.707 2.63zM.833 4.583V1.667h2.5V7.47a2.922 2.922 0 0 1-2.5-2.888zm18.75-3.75h-2.916V.417A.417.417 0 0 0 16.25 0H3.75a.417.417 0 0 0-.417.417v.416H.417A.417.417 0 0 0 0 1.25v3.333C0 6.527 1.49 8.11 3.386 8.297a6.67 6.67 0 0 0 6.118 5.845c-.035.231-.064.473-.09.726-.177 1.656-.377 3.533-3.137 4.315a.417.417 0 0 0 .115.817h7.216a.416.416 0 0 0 .115-.817c-2.76-.782-2.96-2.659-3.136-4.315a16.316 16.316 0 0 0-.091-.726 6.67 6.67 0 0 0 6.118-5.845C18.51 8.11 20 6.527 20 4.583V1.25a.417.417 0 0 0-.417-.417z"/>
</svg>
