<svg xmlns="http://www.w3.org/2000/svg" width="25" height="17" viewBox="0 0 25 17">
    <g fill="#5B98E5" fill-rule="evenodd">
        <path d="M23.958 13.02c0 .288-.234.522-.52.522h-1.615a2.609 2.609 0 0 0-2.552-2.084c-1.258 0-2.31.897-2.552 2.084h-.052V4.167h3.214c.137 0 .272.055.368.152l3.557 3.557a.526.526 0 0 1 .152.368v4.777zm-4.687 2.605a1.564 1.564 0 0 1-1.563-1.563c0-.861.701-1.562 1.563-1.562.861 0 1.562.701 1.562 1.563 0 .861-.7 1.562-1.562 1.562zm-3.646-11.98v9.897H7.239a2.609 2.609 0 0 0-2.551-2.084c-1.258 0-2.31.897-2.552 2.084h-.574a.521.521 0 0 1-.52-.521V1.562c0-.287.234-.52.52-.52h13.542c.287 0 .521.233.521.52v2.084zM4.687 15.626a1.564 1.564 0 0 1-1.562-1.563c0-.861.701-1.562 1.563-1.562.861 0 1.562.701 1.562 1.563 0 .861-.701 1.562-1.563 1.562zm19.855-8.486l-3.556-3.556a1.573 1.573 0 0 0-1.105-.458h-3.214V1.562C16.667.702 15.966 0 15.104 0H1.563C.7 0 0 .701 0 1.563V13.02c0 .861.701 1.562 1.563 1.562h.573a2.609 2.609 0 0 0 2.551 2.084c1.258 0 2.31-.897 2.552-2.084h9.48a2.609 2.609 0 0 0 2.552 2.084c1.258 0 2.31-.897 2.552-2.084h1.614c.862 0 1.563-.7 1.563-1.562V8.244c0-.417-.163-.81-.458-1.105z"/>
        <path d="M12.41 3.945a.503.503 0 0 0-.714.047L7.599 8.674 5.132 6.481a.487.487 0 0 0-.367-.128.505.505 0 0 0-.306.883l2.85 2.532a.505.505 0 0 0 .335.128l.032-.001a.51.51 0 0 0 .348-.172l4.432-5.065a.5.5 0 0 0 .124-.366.5.5 0 0 0-.17-.347"/>
    </g>
</svg>
