<svg xmlns="http://www.w3.org/2000/svg" xmlns:xlink="http://www.w3.org/1999/xlink" width="18" height="20" viewBox="0 0 18 20">
    <defs>
        <path id="a" d="M0 0h10.636v13.909H0z"/>
    </defs>
    <g fill="none" fill-rule="evenodd">
        <path fill="#F3444A" d="M16.773 10.636a.41.41 0 0 0-.41.41v6.758c0 .56-.454 1.014-1.013 1.014H1.832a1.015 1.015 0 0 1-1.014-1.014V4.286c0-.558.455-1.013 1.014-1.013H8.59a.41.41 0 0 0 0-.818H1.83C.823 2.455 0 3.276 0 4.286v13.518c0 1.01.822 1.832 1.832 1.832H15.35c1.01 0 1.832-.821 1.832-1.832v-6.759a.41.41 0 0 0-.41-.409"/>
        <g transform="translate(7.364)">
            <mask id="b" fill="#fff">
                <use xlink:href="#a"/>
            </mask>
            <path fill="#F3444A" d="M10.605 3.838a.413.413 0 0 0-.089-.446L7.244.12a.408.408 0 0 0-.578 0 .408.408 0 0 0 0 .579L9.24 3.273H7.795a7.808 7.808 0 0 0-4.783 1.646C1.332 6.229.294 8.308.164 10.62L0 13.477a.409.409 0 0 0 .385.431l.023.001a.408.408 0 0 0 .408-.386l.163-2.856C1.1 8.59 2.022 6.73 3.515 5.564a6.985 6.985 0 0 1 4.28-1.473H9.24L6.666 6.666a.408.408 0 0 0 .288.698.41.41 0 0 0 .29-.12l3.272-3.273a.39.39 0 0 0 .09-.133" mask="url(#b)"/>
        </g>
    </g>
</svg>
