<svg xmlns="http://www.w3.org/2000/svg" xmlns:xlink="http://www.w3.org/1999/xlink" width="8" height="6" viewBox="0 0 8 6">
    <defs>
        <path id="a" d="M0 0h6.857v5.08H0z"/>
    </defs>
    <g fill="none" fill-rule="evenodd" transform="translate(.571 .429)">
        <mask id="b" fill="#fff">
            <use xlink:href="#a"/>
        </mask>
        <path fill="#FFF" d="M2.794 5.08a.506.506 0 0 1-.338-.13L.17 2.92A.503.503 0 0 1 0 2.57a.503.503 0 0 1 .127-.368.51.51 0 0 1 .72-.04l1.9 1.69L5.967.174a.504.504 0 0 1 .717-.047.504.504 0 0 1 .047.717L3.176 4.906a.506.506 0 0 1-.35.173h-.032z" mask="url(#b)"/>
    </g>
</svg>
