<svg xmlns="http://www.w3.org/2000/svg" width="20" height="17" viewBox="0 0 20 17">
    <path fill="#F3444A" fill-rule="evenodd" d="M19.167 10.417c0 .229-.188.416-.417.416h-5c-.69 0-1.25-.56-1.25-1.25 0-.689.56-1.25 1.25-1.25h5c.23 0 .417.188.417.417v1.667zm-1.25 5.416H2.083c-.689 0-1.25-.56-1.25-1.25V3.74c.35.264.78.427 1.25.427h15.834c.229 0 .416.187.416.416V7.5H13.75c-1.15 0-2.083.934-2.083 2.083 0 1.15.934 2.084 2.083 2.084h4.583v3.75c0 .229-.187.416-.416.416zM2.083.833h13.334c.229 0 .416.188.416.417v2.083H2.083c-.689 0-1.25-.56-1.25-1.25 0-.689.561-1.25 1.25-1.25zm17.084 6.744V4.583c0-.689-.561-1.25-1.25-1.25h-1.25V1.25c0-.69-.561-1.25-1.25-1.25H2.083C.934 0 0 .934 0 2.083v12.5c0 1.15.934 2.084 2.083 2.084h15.834c.689 0 1.25-.561 1.25-1.25V11.59c.484-.172.833-.632.833-1.173V8.75c0-.542-.35-1-.833-1.173z"/>
</svg>
